<?xml version="1.0" encoding="UTF-8"?>
<!DOCTYPE svg PUBLIC "-//W3C//DTD SVG 1.1//EN" "http://www.w3.org/Graphics/SVG/1.1/DTD/svg11.dtd">
<svg xmlns="http://www.w3.org/2000/svg" version="1.1" width="1024px" height="1024px" style="shape-rendering:geometricPrecision; text-rendering:geometricPrecision; image-rendering:optimizeQuality; fill-rule:evenodd; clip-rule:evenodd" xmlns:xlink="http://www.w3.org/1999/xlink">
<g><path style="opacity:0.961" fill="#010101" d="M 474.5,-0.5 C 499.5,-0.5 524.5,-0.5 549.5,-0.5C 699.461,13.7925 821.627,79.1259 916,195.5C 979.082,277.718 1014.92,370.718 1023.5,474.5C 1023.5,499.167 1023.5,523.833 1023.5,548.5C 1009,703.359 940.329,828.193 817.5,923C 735.07,983.211 642.736,1016.71 540.5,1023.5C 521.5,1023.5 502.5,1023.5 483.5,1023.5C 323.605,1010.98 195.105,941.315 98,814.5C 39.3606,733.022 6.52725,642.022 -0.5,541.5C -0.5,521.5 -0.5,501.5 -0.5,481.5C 13.1988,316.209 86.8654,185.375 220.5,89C 297.251,37.0257 381.917,7.19236 474.5,-0.5 Z"/></g>
<g><path style="opacity:1" fill="#fafafa" d="M 608.5,35.5 C 610.515,36.9238 612.848,37.5905 615.5,37.5C 769.661,74.8467 881.828,164.513 952,306.5C 966.68,337.558 977.514,369.892 984.5,403.5C 984.41,406.152 985.076,408.485 986.5,410.5C 1016.33,571.93 977.834,714.263 871,837.5C 773.116,941.386 652.449,994.386 509,996.5C 492.301,996.257 475.801,995.257 459.5,993.5C 455.081,992.028 450.414,991.362 445.5,991.5C 444.167,991.5 442.833,991.5 441.5,991.5C 436.527,989.24 431.194,988.24 425.5,988.5C 288.458,961.554 181.291,890.221 104,774.5C 43.5869,677.767 18.7536,572.434 29.5,458.5C 30.9715,454.081 31.6382,449.414 31.5,444.5C 31.5,443.167 31.5,441.833 31.5,440.5C 33.7599,435.527 34.7599,430.194 34.5,424.5C 60.3891,293.477 127.389,189.311 235.5,112C 332.335,46.2959 439.335,18.2959 556.5,28C 573.861,30.3367 591.194,32.8367 608.5,35.5 Z"/></g>
<g><path style="opacity:1" fill="#6a6a6a" d="M 608.5,35.5 C 611.152,35.4095 613.485,36.0762 615.5,37.5C 612.848,37.5905 610.515,36.9238 608.5,35.5 Z"/></g>
<g><path style="opacity:1" fill="#080808" d="M 488.5,99.5 C 489.479,96.3752 489.813,93.0419 489.5,89.5C 485.958,89.1872 482.625,89.5206 479.5,90.5C 477.167,90.5 474.833,90.5 472.5,90.5C 472.5,86.8333 472.5,83.1667 472.5,79.5C 473.791,79.7373 474.791,79.404 475.5,78.5C 484.495,77.7782 493.495,77.1115 502.5,76.5C 503.315,86.1574 503.482,95.824 503,105.5C 490.979,115.615 477.146,119.448 461.5,117C 444.918,110.718 436.585,98.551 436.5,80.5C 436.647,62.5261 445.314,51.0261 462.5,46C 476.141,42.883 487.641,46.383 497,56.5C 498.964,58.8533 499.464,61.3533 498.5,64C 494.948,64.6286 491.448,65.4619 488,66.5C 484.867,64.0427 481.701,61.5427 478.5,59C 461.858,54.8023 452.858,61.1356 451.5,78C 452.489,104.826 464.823,111.993 488.5,99.5 Z"/></g>
<g><path style="opacity:1" fill="#0a0a0a" d="M 597.5,53.5 C 607.855,53.4538 617.522,55.9538 626.5,61C 633.029,66.2512 635.696,73.0845 634.5,81.5C 629.799,81.0431 625.132,80.3764 620.5,79.5C 620.711,71.8747 617.044,67.3747 609.5,66C 604.848,64.8069 600.681,65.6403 597,68.5C 596.041,72.4214 597.208,75.5881 600.5,78C 609.583,82.2876 618.083,87.4543 626,93.5C 632.962,107.282 629.795,118.115 616.5,126C 604.26,129.106 592.927,127.106 582.5,120C 575.718,113.595 573.051,105.762 574.5,96.5C 578.824,96.9272 583.158,97.2605 587.5,97.5C 588.612,111.747 596.279,117.247 610.5,114C 616.664,109.7 616.997,105.033 611.5,100C 604.833,96.3333 598.167,92.6667 591.5,89C 579.928,78.636 579.595,67.9693 590.5,57C 592.925,55.7874 595.259,54.6207 597.5,53.5 Z"/></g>
<g><path style="opacity:1" fill="#080808" d="M 403.5,56.5 C 405.5,56.5 407.5,56.5 409.5,56.5C 414.614,78.733 420.614,100.733 427.5,122.5C 422.827,125.228 417.827,126.394 412.5,126C 399.7,114.868 387.2,103.368 375,91.5C 378.51,106.206 382.343,120.873 386.5,135.5C 382.167,136.167 377.833,136.833 373.5,137.5C 367.661,115.813 361.661,94.1465 355.5,72.5C 355.818,71.3527 356.484,70.5194 357.5,70C 361.108,68.6772 364.775,68.0105 368.5,68C 381.967,79.7989 395.134,91.9655 408,104.5C 404.27,90.0867 400.437,75.5867 396.5,61C 398.563,58.9752 400.896,57.4752 403.5,56.5 Z"/></g>
<g><path style="opacity:1" fill="#070707" d="M 694.5,127.5 C 694.827,137.348 694.494,147.014 693.5,156.5C 689.171,155.252 685.004,153.586 681,151.5C 680.83,145.804 680.33,140.138 679.5,134.5C 671.43,131.052 663.264,127.719 655,124.5C 651.154,128.013 647.654,131.846 644.5,136C 642.833,136.667 641.167,136.667 639.5,136C 636.307,134.946 633.307,133.446 630.5,131.5C 646.482,112.353 663.315,94.0197 681,76.5C 685.205,78.5671 689.538,80.2337 694,81.5C 694.5,96.8297 694.667,112.163 694.5,127.5 Z"/></g>
<g><path style="opacity:1" fill="#6e6e6e" d="M 475.5,78.5 C 474.791,79.404 473.791,79.7373 472.5,79.5C 472.5,83.1667 472.5,86.8333 472.5,90.5C 471.517,86.7016 471.183,82.7016 471.5,78.5C 472.833,78.5 474.167,78.5 475.5,78.5 Z"/></g>
<g><path style="opacity:1" fill="#878787" d="M 479.5,90.5 C 482.625,89.5206 485.958,89.1872 489.5,89.5C 489.813,93.0419 489.479,96.3752 488.5,99.5C 488.5,96.5 488.5,93.5 488.5,90.5C 485.5,90.5 482.5,90.5 479.5,90.5 Z"/></g>
<g><path style="opacity:1" fill="#f2f2f2" d="M 679.5,95.5 C 680.493,103.984 680.826,112.651 680.5,121.5C 674.47,119.983 668.803,117.649 663.5,114.5C 668.856,108.147 674.19,101.814 679.5,95.5 Z"/></g>
<g><path style="opacity:1" fill="#060606" d="M 749.5,109.5 C 749.333,127.836 749.5,146.17 750,164.5C 750.717,163.956 751.217,163.289 751.5,162.5C 758.572,150.693 765.906,139.026 773.5,127.5C 774.365,126.417 775.365,126.251 776.5,127C 779.791,128.635 782.791,130.635 785.5,133C 773.38,152.738 760.88,172.238 748,191.5C 744.333,189.167 740.667,186.833 737,184.5C 736.501,179.177 736.334,173.844 736.5,168.5C 737.66,156.007 737.827,143.34 737,130.5C 736.283,131.044 735.783,131.711 735.5,132.5C 728.193,144.149 720.86,155.816 713.5,167.5C 712.635,168.583 711.635,168.749 710.5,168C 708.099,165.938 705.433,164.271 702.5,163C 701.549,162.282 701.383,161.449 702,160.5C 713.916,142.336 725.583,124.003 737,105.5C 737.689,104.643 738.522,103.977 739.5,103.5C 742.861,105.511 746.194,107.511 749.5,109.5 Z"/></g>
<g><path style="opacity:1" fill="#626262" d="M 679.5,95.5 C 679.56,94.9569 679.893,94.6236 680.5,94.5C 681.822,103.658 681.822,112.658 680.5,121.5C 680.826,112.651 680.493,103.984 679.5,95.5 Z"/></g>
<g><path style="opacity:1" fill="#070707" d="M 299.5,151.5 C 301.094,158.287 300.761,164.953 298.5,171.5C 296.968,174.057 295.301,176.557 293.5,179C 284.344,186.078 275.011,192.911 265.5,199.5C 251.092,181.418 237.426,162.752 224.5,143.5C 234.451,135.06 245.118,127.56 256.5,121C 270.794,119.061 282.294,123.894 291,135.5C 294.623,140.412 297.456,145.745 299.5,151.5 Z"/></g>
<g><path style="opacity:1" fill="#030302" d="M 894.5,476.5 C 895.226,494.824 895.56,513.158 895.5,531.5C 886.501,651.693 834.501,748.193 739.5,821C 640.02,890.419 531.02,911.086 412.5,883C 287.613,846.114 200.78,767.281 152,646.5C 110.056,527.586 121.39,414.253 186,306.5C 255.109,201.833 352.276,142.333 477.5,128C 609.32,120.191 718.82,165.358 806,263.5C 857.427,325.065 886.927,396.065 894.5,476.5 Z"/></g>
<g><path style="opacity:1" fill="#f8f8f8" d="M 257.5,133.5 C 267.912,132.96 275.746,137.293 281,146.5C 285.931,152.343 287.931,159.01 287,166.5C 282.611,172.885 276.945,177.885 270,181.5C 260.333,169.648 251.166,157.315 242.5,144.5C 247.39,140.568 252.39,136.901 257.5,133.5 Z"/></g>
<g><path style="opacity:1" fill="#8e8e8e" d="M 694.5,127.5 C 695.823,137.341 695.823,147.341 694.5,157.5C 693.893,157.376 693.56,157.043 693.5,156.5C 694.494,147.014 694.827,137.348 694.5,127.5 Z"/></g>
<g><path style="opacity:1" fill="#606060" d="M 749.5,109.5 C 750.167,127.167 750.833,144.833 751.5,162.5C 751.217,163.289 750.717,163.956 750,164.5C 749.5,146.17 749.333,127.836 749.5,109.5 Z"/></g>
<g><path style="opacity:1" fill="#080808" d="M 800.5,146.5 C 801.552,146.351 802.552,146.517 803.5,147C 817.129,158.294 830.463,169.961 843.5,182C 841.372,185.13 838.872,187.963 836,190.5C 831.167,186.333 826.333,182.167 821.5,178C 820.833,177.333 820.167,177.333 819.5,178C 807.301,192.526 794.801,206.693 782,220.5C 779.011,218.181 776.011,215.847 773,213.5C 772.333,212.5 772.333,211.5 773,210.5C 785.167,196.333 797.333,182.167 809.5,168C 804.325,163.657 799.325,159.157 794.5,154.5C 796.14,151.532 798.14,148.865 800.5,146.5 Z"/></g>
<g><path style="opacity:1" fill="#fef012" d="M 552.5,155.5 C 557.269,156.889 562.269,157.556 567.5,157.5C 578.709,159.976 590.042,162.31 601.5,164.5C 603.515,165.924 605.848,166.59 608.5,166.5C 723.626,201.788 803.459,275.455 848,387.5C 852.72,400.599 856.554,413.932 859.5,427.5C 859.41,430.152 860.076,432.485 861.5,434.5C 862.326,438.136 862.992,441.803 863.5,445.5C 863.28,450.1 863.946,454.433 865.5,458.5C 866.369,460.717 866.702,463.05 866.5,465.5C 866.444,470.731 867.111,475.731 868.5,480.5C 869.998,504.142 869.664,527.809 867.5,551.5C 866.111,556.269 865.444,561.269 865.5,566.5C 863.888,573.651 862.554,580.984 861.5,588.5C 859.837,590.438 859.171,592.772 859.5,595.5C 858.962,597.117 858.629,598.784 858.5,600.5C 857.076,602.515 856.41,604.848 856.5,607.5C 856.167,608.833 855.833,610.167 855.5,611.5C 853.796,614.939 852.462,618.605 851.5,622.5C 816.475,724.036 749.808,796.87 651.5,841C 626.569,850.808 600.902,858.308 574.5,863.5C 568.84,863.441 563.506,864.441 558.5,866.5C 552.811,866.532 547.145,866.866 541.5,867.5C 524.513,868.316 507.513,868.65 490.5,868.5C 482.116,868.41 473.783,867.743 465.5,866.5C 460.17,864.333 454.503,863.333 448.5,863.5C 439.256,862.461 430.256,860.461 421.5,857.5C 419.485,856.076 417.152,855.41 414.5,855.5C 324.864,829.28 255.364,776.613 206,697.5C 177.705,650.446 160.871,599.446 155.5,544.5C 154.744,525.843 154.411,507.177 154.5,488.5C 154.963,479.396 155.963,470.396 157.5,461.5C 158.972,457.081 159.638,452.414 159.5,447.5C 160.343,442.462 161.343,437.462 162.5,432.5C 163.924,430.485 164.59,428.152 164.5,425.5C 186.418,339.772 233.085,270.939 304.5,219C 341.749,192.379 382.749,173.879 427.5,163.5C 430.152,163.59 432.485,162.924 434.5,161.5C 437.127,160.908 439.794,160.575 442.5,160.5C 445.152,160.59 447.485,159.924 449.5,158.5C 449.833,158.5 450.167,158.5 450.5,158.5C 454.489,158.884 458.155,158.217 461.5,156.5C 462.833,156.5 464.167,156.5 465.5,156.5C 470.731,156.556 475.731,155.889 480.5,154.5C 504.54,153.013 528.54,153.347 552.5,155.5 Z"/></g>
<g><path style="opacity:1" fill="#9b930b" d="M 480.5,154.5 C 475.731,155.889 470.731,156.556 465.5,156.5C 470.269,155.111 475.269,154.444 480.5,154.5 Z"/></g>
<g><path style="opacity:1" fill="#45420c" d="M 552.5,155.5 C 557.731,155.444 562.731,156.111 567.5,157.5C 562.269,157.556 557.269,156.889 552.5,155.5 Z"/></g>
<g><path style="opacity:1" fill="#8e860a" d="M 461.5,156.5 C 458.155,158.217 454.489,158.884 450.5,158.5C 453.974,157.475 457.64,156.808 461.5,156.5 Z"/></g>
<g><path style="opacity:1" fill="#a69e0c" d="M 449.5,158.5 C 447.485,159.924 445.152,160.59 442.5,160.5C 444.515,159.076 446.848,158.41 449.5,158.5 Z"/></g>
<g><path style="opacity:1" fill="#8e870a" d="M 434.5,161.5 C 432.485,162.924 430.152,163.59 427.5,163.5C 429.515,162.076 431.848,161.41 434.5,161.5 Z"/></g>
<g><path style="opacity:1" fill="#404040" d="M 736.5,168.5 C 736.828,156.322 736.495,144.322 735.5,132.5C 735.783,131.711 736.283,131.044 737,130.5C 737.827,143.34 737.66,156.007 736.5,168.5 Z"/></g>
<g><path style="opacity:1" fill="#48450a" d="M 601.5,164.5 C 604.152,164.41 606.485,165.076 608.5,166.5C 605.848,166.59 603.515,165.924 601.5,164.5 Z"/></g>
<g><path style="opacity:1" fill="#adadad" d="M 299.5,151.5 C 301.006,154.356 301.672,157.523 301.5,161C 301.333,163.167 301.167,165.333 301,167.5C 300.8,169.32 299.966,170.653 298.5,171.5C 300.761,164.953 301.094,158.287 299.5,151.5 Z"/></g>
<g><path style="opacity:1" fill="#080808" d="M 200.5,168.5 C 221.128,169.239 235.294,179.239 243,198.5C 245.446,218.105 237.612,231.939 219.5,240C 210.852,242.585 202.519,241.918 194.5,238C 177.738,228.25 170.238,213.75 172,194.5C 177.614,181.378 187.114,172.711 200.5,168.5 Z"/></g>
<g><path style="opacity:1" fill="#f9f9f9" d="M 228.5,201.5 C 229.162,205.466 229.495,209.466 229.5,213.5C 225.587,224.963 217.587,229.463 205.5,227C 190.834,220.492 184.334,209.325 186,193.5C 193.395,181.038 203.229,178.538 215.5,186C 221.368,189.915 225.701,195.082 228.5,201.5 Z"/></g>
<g><path style="opacity:1" fill="#888888" d="M 228.5,201.5 C 229.926,203.679 230.592,206.179 230.5,209C 230.492,210.707 230.158,212.207 229.5,213.5C 229.495,209.466 229.162,205.466 228.5,201.5 Z"/></g>
<g><path style="opacity:1" fill="#080808" d="M 862.5,206.5 C 867.907,208.737 871.907,212.571 874.5,218C 863.017,240.157 851.517,262.323 840,284.5C 836.82,280.655 833.653,276.822 830.5,273C 832.277,268.613 834.443,264.446 837,260.5C 837.667,259.167 837.667,257.833 837,256.5C 831.646,250.647 826.48,244.647 821.5,238.5C 815.581,238.126 809.914,239.459 804.5,242.5C 801.377,238.875 798.044,235.375 794.5,232C 817.116,223.186 839.782,214.686 862.5,206.5 Z"/></g>
<g><path style="opacity:1" fill="#efefef" d="M 852.5,223.5 C 853.978,223.238 855.311,223.571 856.5,224.5C 852.586,231.996 848.42,239.329 844,246.5C 840.153,241.989 836.32,237.489 832.5,233C 839.04,229.543 845.707,226.377 852.5,223.5 Z"/></g>
<g><path style="opacity:1" fill="#090909" d="M 142.5,230.5 C 149.014,229.746 155.014,231.079 160.5,234.5C 157.971,237.864 155.637,241.364 153.5,245C 142.587,243.207 135.92,247.874 133.5,259C 133.894,264.063 136.561,266.063 141.5,265C 148.015,260.241 154.348,255.241 160.5,250C 175.033,242.622 186.2,246.122 194,260.5C 194.421,277.747 186.921,290.247 171.5,298C 166.833,298.667 162.167,298.667 157.5,298C 154.888,297.361 152.554,296.194 150.5,294.5C 152.516,290.457 155.016,286.79 158,283.5C 173.389,286.442 180.722,280.109 180,264.5C 177.487,260.788 173.987,259.622 169.5,261C 162.784,266.717 155.784,272.05 148.5,277C 136.298,281.982 127.465,278.482 122,266.5C 120.904,250.072 127.738,238.072 142.5,230.5 Z"/></g>
<g><path style="opacity:1" fill="#080808" d="M 915.5,280.5 C 916.978,280.238 918.311,280.571 919.5,281.5C 924.984,292.469 930.484,303.469 936,314.5C 939.61,330.377 933.443,339.711 917.5,342.5C 915.035,342.522 912.702,342.022 910.5,341C 907.354,338.688 904.354,336.188 901.5,333.5C 898.185,345.799 892.518,356.799 884.5,366.5C 881.637,362.107 879.304,357.44 877.5,352.5C 882.495,343.314 887.329,333.98 892,324.5C 893.32,319.149 891.82,314.816 887.5,311.5C 879.395,315.636 871.228,319.636 863,323.5C 860.341,320.192 858.175,316.525 856.5,312.5C 876.066,301.552 895.732,290.886 915.5,280.5 Z"/></g>
<g><path style="opacity:1" fill="#fbc41a" d="M 292.5,258.5 C 292.5,275.5 292.5,292.5 292.5,309.5C 289.833,309.5 287.167,309.5 284.5,309.5C 286.607,308.532 288.941,308.198 291.5,308.5C 291.17,291.658 291.503,274.992 292.5,258.5 Z"/></g>
<g><path style="opacity:1" fill="#080808" d="M 114.5,349.5 C 117.186,350.991 120.186,351.657 123.5,351.5C 125.696,351.495 127.696,351.162 129.5,350.5C 141.3,344.89 145.634,335.556 142.5,322.5C 139.766,320.629 136.766,319.629 133.5,319.5C 132.404,323.697 130.738,327.697 128.5,331.5C 124.214,332.204 120.547,330.87 117.5,327.5C 121.333,319.167 125.167,310.833 129,302.5C 129.561,301.978 130.228,301.645 131,301.5C 139.106,305.47 147.273,309.303 155.5,313C 158.649,327.226 156.149,340.392 148,352.5C 139.219,362.983 128.052,367.15 114.5,365C 102.05,362.198 92.5499,355.365 86,344.5C 84.2725,341.382 83.4392,338.049 83.5,334.5C 83.4126,329.463 83.746,324.463 84.5,319.5C 87.7952,308.711 94.4619,300.877 104.5,296C 108.871,295.172 113.205,295.339 117.5,296.5C 115.876,300.701 114.876,305.034 114.5,309.5C 102.534,310.132 96.201,316.466 95.5,328.5C 97.2076,339.547 103.541,346.547 114.5,349.5 Z"/></g>
<g><path style="opacity:1" fill="#f9b31e" d="M 727.5,258.5 C 728.497,274.992 728.83,291.658 728.5,308.5C 730.415,308.216 732.081,308.549 733.5,309.5C 731.5,309.5 729.5,309.5 727.5,309.5C 727.5,292.5 727.5,275.5 727.5,258.5 Z"/></g>
<g><path style="opacity:1" fill="#f3f3f3" d="M 911.5,298.5 C 912.978,298.238 914.311,298.571 915.5,299.5C 919.043,305.92 922.043,312.587 924.5,319.5C 923.726,325.236 920.392,328.236 914.5,328.5C 912.088,328.594 910.255,327.594 909,325.5C 905.486,319.135 901.986,312.802 898.5,306.5C 902.694,303.571 907.027,300.905 911.5,298.5 Z"/></g>
<g><path style="opacity:1" fill="#fabd1c" d="M 733.5,309.5 C 734.468,311.607 734.802,313.941 734.5,316.5C 738.042,316.187 741.375,316.521 744.5,317.5C 740.833,317.5 737.167,317.5 733.5,317.5C 733.5,314.833 733.5,312.167 733.5,309.5 Z"/></g>
<g><path style="opacity:1" fill="#ee4434" d="M 292.5,258.5 C 437.5,258.5 582.5,258.5 727.5,258.5C 727.5,275.5 727.5,292.5 727.5,309.5C 729.5,309.5 731.5,309.5 733.5,309.5C 733.5,312.167 733.5,314.833 733.5,317.5C 737.167,317.5 740.833,317.5 744.5,317.5C 741.677,321.805 738.844,326.138 736,330.5C 736.015,336.405 735.182,342.072 733.5,347.5C 732.883,347.611 732.383,347.944 732,348.5C 731.768,347.263 731.268,346.263 730.5,345.5C 583.167,345.5 435.833,345.5 288.5,345.5C 287.292,344.766 285.959,344.433 284.5,344.5C 283.674,340.018 283.174,335.351 283,330.5C 280.167,326.333 277.333,322.167 274.5,318C 277.817,317.502 281.15,317.335 284.5,317.5C 284.5,314.833 284.5,312.167 284.5,309.5C 287.167,309.5 289.833,309.5 292.5,309.5C 292.5,292.5 292.5,275.5 292.5,258.5 Z"/></g>
<g><path style="opacity:1" fill="#fff212" d="M 288.5,313.5 C 435.5,313.5 582.5,313.5 729.5,313.5C 729.5,314.5 729.5,315.5 729.5,316.5C 582.5,316.5 435.5,316.5 288.5,316.5C 288.5,315.5 288.5,314.5 288.5,313.5 Z"/></g>
<g><path style="opacity:1" fill="#fabe1c" d="M 288.5,313.5 C 435.666,312.5 582.999,312.167 730.5,312.5C 730.5,314.167 730.5,315.833 730.5,317.5C 582.999,317.833 435.666,317.5 288.5,316.5C 435.5,316.5 582.5,316.5 729.5,316.5C 729.5,315.5 729.5,314.5 729.5,313.5C 582.5,313.5 435.5,313.5 288.5,313.5 Z"/></g>
<g><path style="opacity:1" fill="#f9ae1f" d="M 707.5,261.5 C 708.496,277.325 708.83,293.325 708.5,309.5C 686.833,309.5 665.167,309.5 643.5,309.5C 643.5,309.167 643.5,308.833 643.5,308.5C 664.833,308.5 686.167,308.5 707.5,308.5C 707.5,292.833 707.5,277.167 707.5,261.5 Z"/></g>
<g><path style="opacity:1" fill="#5d5706" d="M 638.5,290.5 C 639.919,289.549 641.585,289.216 643.5,289.5C 643.5,295.833 643.5,302.167 643.5,308.5C 643.5,308.833 643.5,309.167 643.5,309.5C 642.51,303.355 642.177,297.022 642.5,290.5C 641.167,290.5 639.833,290.5 638.5,290.5 Z"/></g>
<g><path style="opacity:1" fill="#0d0601" d="M 630.5,297.5 C 632.948,298.473 635.615,298.806 638.5,298.5C 638.5,295.833 638.5,293.167 638.5,290.5C 639.833,290.5 641.167,290.5 642.5,290.5C 642.177,297.022 642.51,303.355 643.5,309.5C 641.833,310.833 640.167,310.833 638.5,309.5C 638.5,307.167 638.5,304.833 638.5,302.5C 635.713,301.523 632.713,301.19 629.5,301.5C 629.194,304.385 629.527,307.052 630.5,309.5C 628.833,310.833 627.167,310.833 625.5,309.5C 626.49,303.355 626.823,297.022 626.5,290.5C 627.5,290.5 628.5,290.5 629.5,290.5C 629.198,293.059 629.532,295.393 630.5,297.5 Z"/></g>
<g><path style="opacity:1" fill="#fbe713" d="M 638.5,302.5 C 638.5,304.833 638.5,307.167 638.5,309.5C 635.833,309.5 633.167,309.5 630.5,309.5C 630.5,307.167 630.5,304.833 630.5,302.5C 633.167,302.5 635.833,302.5 638.5,302.5 Z"/></g>
<g><path style="opacity:1" fill="#605a07" d="M 638.5,302.5 C 635.833,302.5 633.167,302.5 630.5,302.5C 630.5,304.833 630.5,307.167 630.5,309.5C 629.527,307.052 629.194,304.385 629.5,301.5C 632.713,301.19 635.713,301.523 638.5,302.5 Z"/></g>
<g><path style="opacity:1" fill="#4e4905" d="M 630.5,297.5 C 629.532,295.393 629.198,293.059 629.5,290.5C 628.5,290.5 627.5,290.5 626.5,290.5C 626.823,297.022 626.49,303.355 625.5,309.5C 625.5,302.833 625.5,296.167 625.5,289.5C 627.167,289.5 628.833,289.5 630.5,289.5C 630.5,292.167 630.5,294.833 630.5,297.5 Z"/></g>
<g><path style="opacity:1" fill="#161203" d="M 621.5,309.5 C 617.833,310.833 614.167,310.833 610.5,309.5C 604.622,302.241 605.288,295.741 612.5,290C 615.482,289.502 618.482,289.335 621.5,289.5C 621.5,290.833 621.5,292.167 621.5,293.5C 611.385,292.726 608.718,296.893 613.5,306C 616.146,306.497 618.813,306.664 621.5,306.5C 621.5,307.5 621.5,308.5 621.5,309.5 Z"/></g>
<g><path style="opacity:1" fill="#161103" d="M 598.5,290.5 C 604.835,293.07 605.168,296.57 599.5,301C 601.72,303.713 603.72,306.546 605.5,309.5C 603.611,310.742 601.611,310.742 599.5,309.5C 599.085,305.599 597.085,303.266 593.5,302.5C 593.5,304.833 593.5,307.167 593.5,309.5C 592.167,310.833 590.833,310.833 589.5,309.5C 589.5,303.167 589.5,296.833 589.5,290.5C 592.5,290.5 595.5,290.5 598.5,290.5 Z"/></g>
<g><path style="opacity:1" fill="#181404" d="M 585.5,308.5 C 585.5,308.833 585.5,309.167 585.5,309.5C 583.643,310.765 581.976,310.432 580.5,308.5C 580.5,307.5 580.5,306.5 580.5,305.5C 577.813,305.336 575.146,305.503 572.5,306C 571.663,307.011 571.33,308.178 571.5,309.5C 569.833,310.833 568.167,310.833 566.5,309.5C 568.983,303.242 571.317,296.909 573.5,290.5C 575.998,289.062 578.164,289.396 580,291.5C 581.684,297.244 583.517,302.911 585.5,308.5 Z"/></g>
<g><path style="opacity:1" fill="#191404" d="M 557.5,309.5 C 555.833,310.833 554.167,310.833 552.5,309.5C 552.67,308.178 552.337,307.011 551.5,306C 548.854,305.503 546.187,305.336 543.5,305.5C 543.5,306.833 543.5,308.167 543.5,309.5C 541.716,310.72 540.05,310.72 538.5,309.5C 540.318,303.855 542.152,298.188 544,292.5C 545.581,289.447 547.914,288.78 551,290.5C 553.47,296.745 555.637,303.078 557.5,309.5 Z"/></g>
<g><path style="opacity:1" fill="#1c1806" d="M 534.5,309.5 C 530.468,310.766 526.468,310.766 522.5,309.5C 522.238,308.022 522.571,306.689 523.5,305.5C 526.084,306.393 528.751,306.726 531.5,306.5C 531.649,305.448 531.483,304.448 531,303.5C 527.797,302.23 525.13,300.23 523,297.5C 522.113,291.881 524.613,289.215 530.5,289.5C 533.958,288.774 535.625,290.107 535.5,293.5C 532.833,293.5 530.167,293.5 527.5,293.5C 527.33,294.822 527.663,295.989 528.5,297C 536.319,298.602 538.319,302.769 534.5,309.5 Z"/></g>
<g><path style="opacity:1" fill="#161203" d="M 515.5,309.5 C 511.833,310.833 508.167,310.833 504.5,309.5C 499.203,303.332 499.203,297.165 504.5,291C 510.311,288.303 515.144,289.47 519,294.5C 520.441,300.228 519.274,305.228 515.5,309.5 Z"/></g>
<g><path style="opacity:1" fill="#171203" d="M 492.5,290.5 C 498.835,293.07 499.168,296.57 493.5,301C 495.72,303.713 497.72,306.546 499.5,309.5C 497.611,310.742 495.611,310.742 493.5,309.5C 493.085,305.599 491.085,303.266 487.5,302.5C 487.5,304.833 487.5,307.167 487.5,309.5C 486.167,310.833 484.833,310.833 483.5,309.5C 483.5,303.167 483.5,296.833 483.5,290.5C 486.5,290.5 489.5,290.5 492.5,290.5 Z"/></g>
<g><path style="opacity:1" fill="#191404" d="M 471.5,309.5 C 469.95,310.72 468.284,310.72 466.5,309.5C 466.5,308.167 466.5,306.833 466.5,305.5C 463.813,305.336 461.146,305.503 458.5,306C 457.663,307.011 457.33,308.178 457.5,309.5C 455.833,310.833 454.167,310.833 452.5,309.5C 454.983,303.242 457.317,296.909 459.5,290.5C 461.396,289.534 463.396,289.201 465.5,289.5C 467.5,296.167 469.5,302.833 471.5,309.5 Z"/></g>
<g><path style="opacity:1" fill="#070500" d="M 453.5,290.5 C 453.5,291.5 453.5,292.5 453.5,293.5C 451.5,293.5 449.5,293.5 447.5,293.5C 447.5,298.833 447.5,304.167 447.5,309.5C 446.167,310.833 444.833,310.833 443.5,309.5C 443.5,304.167 443.5,298.833 443.5,293.5C 441.833,293.5 440.167,293.5 438.5,293.5C 438.5,292.5 438.5,291.5 438.5,290.5C 443.5,290.5 448.5,290.5 453.5,290.5 Z"/></g>
<g><path style="opacity:1" fill="#110c02" d="M 434.5,309.5 C 432.833,310.833 431.167,310.833 429.5,309.5C 429.573,307.973 428.906,306.973 427.5,306.5C 426.32,303.46 424.653,300.794 422.5,298.5C 422.217,297.711 421.717,297.044 421,296.5C 420.501,300.821 420.334,305.154 420.5,309.5C 419.167,310.833 417.833,310.833 416.5,309.5C 417.49,303.355 417.823,297.022 417.5,290.5C 418.833,290.5 420.167,290.5 421.5,290.5C 424.807,294.426 427.64,298.76 430,303.5C 430.499,298.845 430.666,294.179 430.5,289.5C 431.833,289.5 433.167,289.5 434.5,289.5C 434.5,296.167 434.5,302.833 434.5,309.5 Z"/></g>
<g><path style="opacity:1" fill="#191404" d="M 413.5,309.5 C 411.833,310.833 410.167,310.833 408.5,309.5C 408.763,306.266 407.263,304.932 404,305.5C 400.737,304.932 399.237,306.266 399.5,309.5C 397.716,310.72 396.05,310.72 394.5,309.5C 396.449,302.877 398.782,296.377 401.5,290C 403.441,289.257 405.274,289.424 407,290.5C 409.476,296.761 411.642,303.094 413.5,309.5 Z"/></g>
<g><path style="opacity:1" fill="#1a1605" d="M 390.5,289.5 C 391.626,290.858 391.626,292.192 390.5,293.5C 387.692,291.953 385.359,292.453 383.5,295C 383.57,295.765 383.903,296.265 384.5,296.5C 387.021,298.019 389.521,299.686 392,301.5C 392.891,304.498 392.391,307.164 390.5,309.5C 386.468,310.766 382.468,310.766 378.5,309.5C 378.238,308.022 378.571,306.689 379.5,305.5C 382.084,306.393 384.751,306.726 387.5,306.5C 387.374,303.405 385.707,301.572 382.5,301C 377.185,297.283 377.185,293.617 382.5,290C 385.146,289.503 387.813,289.336 390.5,289.5 Z"/></g>
<g><path style="opacity:1" fill="#f9b71d" d="M 295.5,285.5 C 299.833,285.5 304.167,285.5 308.5,285.5C 308.5,293.5 308.5,301.5 308.5,309.5C 304.167,309.5 299.833,309.5 295.5,309.5C 295.5,301.5 295.5,293.5 295.5,285.5 Z"/></g>
<g><path style="opacity:1" fill="#fab91e" d="M 712.5,285.5 C 716.5,285.5 720.5,285.5 724.5,285.5C 724.5,293.5 724.5,301.5 724.5,309.5C 720.5,309.5 716.5,309.5 712.5,309.5C 712.5,301.5 712.5,293.5 712.5,285.5 Z"/></g>
<g><path style="opacity:1" fill="#fef112" d="M 713.5,286.5 C 716.833,286.5 720.167,286.5 723.5,286.5C 723.5,293.833 723.5,301.167 723.5,308.5C 720.167,308.5 716.833,308.5 713.5,308.5C 713.5,301.167 713.5,293.833 713.5,286.5 Z"/></g>
<g><path style="opacity:1" fill="#fff211" d="M 296.5,286.5 C 300.167,286.5 303.833,286.5 307.5,286.5C 307.5,293.833 307.5,301.167 307.5,308.5C 303.833,308.5 300.167,308.5 296.5,308.5C 296.5,301.167 296.5,293.833 296.5,286.5 Z"/></g>
<g><path style="opacity:1" fill="#f3712a" d="M 484.5,261.5 C 485.492,268.648 485.825,275.981 485.5,283.5C 501.833,283.5 518.167,283.5 534.5,283.5C 534.175,275.981 534.508,268.648 535.5,261.5C 535.5,269.167 535.5,276.833 535.5,284.5C 518.5,284.5 501.5,284.5 484.5,284.5C 484.5,277.167 484.5,269.833 484.5,262.5C 484.5,262.167 484.5,261.833 484.5,261.5 Z"/></g>
<g><path style="opacity:1" fill="#fbcf18" d="M 484.5,261.5 C 484.5,261.833 484.5,262.167 484.5,262.5C 477.167,262.5 469.833,262.5 462.5,262.5C 462.825,270.019 462.492,277.352 461.5,284.5C 461.5,276.833 461.5,269.167 461.5,261.5C 469.167,261.5 476.833,261.5 484.5,261.5 Z"/></g>
<g><path style="opacity:1" fill="#fced12" d="M 535.5,261.5 C 543.5,261.5 551.5,261.5 559.5,261.5C 559.5,269.167 559.5,276.833 559.5,284.5C 576.5,284.5 593.5,284.5 610.5,284.5C 610.5,276.833 610.5,269.167 610.5,261.5C 642.833,261.5 675.167,261.5 707.5,261.5C 707.5,277.167 707.5,292.833 707.5,308.5C 686.167,308.5 664.833,308.5 643.5,308.5C 643.5,302.167 643.5,295.833 643.5,289.5C 641.585,289.216 639.919,289.549 638.5,290.5C 638.5,293.167 638.5,295.833 638.5,298.5C 635.615,298.806 632.948,298.473 630.5,297.5C 630.5,294.833 630.5,292.167 630.5,289.5C 628.833,289.5 627.167,289.5 625.5,289.5C 625.5,296.167 625.5,302.833 625.5,309.5C 624.167,309.5 622.833,309.5 621.5,309.5C 621.5,308.5 621.5,307.5 621.5,306.5C 618.813,306.664 616.146,306.497 613.5,306C 608.718,296.893 611.385,292.726 621.5,293.5C 621.5,292.167 621.5,290.833 621.5,289.5C 618.482,289.335 615.482,289.502 612.5,290C 605.288,295.741 604.622,302.241 610.5,309.5C 608.833,309.5 607.167,309.5 605.5,309.5C 603.72,306.546 601.72,303.713 599.5,301C 605.168,296.57 604.835,293.07 598.5,290.5C 595.375,289.521 592.042,289.187 588.5,289.5C 588.5,295.833 588.5,302.167 588.5,308.5C 587.5,308.5 586.5,308.5 585.5,308.5C 583.517,302.911 581.684,297.244 580,291.5C 578.164,289.396 575.998,289.062 573.5,290.5C 571.317,296.909 568.983,303.242 566.5,309.5C 563.5,309.5 560.5,309.5 557.5,309.5C 555.637,303.078 553.47,296.745 551,290.5C 547.914,288.78 545.581,289.447 544,292.5C 542.152,298.188 540.318,303.855 538.5,309.5C 537.167,309.5 535.833,309.5 534.5,309.5C 538.319,302.769 536.319,298.602 528.5,297C 527.663,295.989 527.33,294.822 527.5,293.5C 530.167,293.5 532.833,293.5 535.5,293.5C 535.625,290.107 533.958,288.774 530.5,289.5C 524.613,289.215 522.113,291.881 523,297.5C 525.13,300.23 527.797,302.23 531,303.5C 531.483,304.448 531.649,305.448 531.5,306.5C 528.751,306.726 526.084,306.393 523.5,305.5C 522.571,306.689 522.238,308.022 522.5,309.5C 520.167,309.5 517.833,309.5 515.5,309.5C 519.274,305.228 520.441,300.228 519,294.5C 515.144,289.47 510.311,288.303 504.5,291C 499.203,297.165 499.203,303.332 504.5,309.5C 502.833,309.5 501.167,309.5 499.5,309.5C 497.72,306.546 495.72,303.713 493.5,301C 499.168,296.57 498.835,293.07 492.5,290.5C 489.375,289.521 486.042,289.187 482.5,289.5C 482.5,296.167 482.5,302.833 482.5,309.5C 478.833,309.5 475.167,309.5 471.5,309.5C 469.5,302.833 467.5,296.167 465.5,289.5C 463.396,289.201 461.396,289.534 459.5,290.5C 457.317,296.909 454.983,303.242 452.5,309.5C 450.833,309.5 449.167,309.5 447.5,309.5C 447.5,304.167 447.5,298.833 447.5,293.5C 449.5,293.5 451.5,293.5 453.5,293.5C 453.5,292.5 453.5,291.5 453.5,290.5C 448.36,289.512 443.026,289.179 437.5,289.5C 437.232,291.099 437.566,292.432 438.5,293.5C 440.167,293.5 441.833,293.5 443.5,293.5C 443.5,298.833 443.5,304.167 443.5,309.5C 440.5,309.5 437.5,309.5 434.5,309.5C 434.5,302.833 434.5,296.167 434.5,289.5C 433.167,289.5 431.833,289.5 430.5,289.5C 430.666,294.179 430.499,298.845 430,303.5C 427.64,298.76 424.807,294.426 421.5,290.5C 420.081,289.549 418.415,289.216 416.5,289.5C 416.5,296.167 416.5,302.833 416.5,309.5C 415.5,309.5 414.5,309.5 413.5,309.5C 411.642,303.094 409.476,296.761 407,290.5C 405.274,289.424 403.441,289.257 401.5,290C 398.782,296.377 396.449,302.877 394.5,309.5C 393.167,309.5 391.833,309.5 390.5,309.5C 392.391,307.164 392.891,304.498 392,301.5C 389.521,299.686 387.021,298.019 384.5,296.5C 386.635,294.631 389.302,293.964 392.5,294.5C 392.923,292.219 392.256,290.552 390.5,289.5C 387.813,289.336 385.146,289.503 382.5,290C 377.185,293.617 377.185,297.283 382.5,301C 385.707,301.572 387.374,303.405 387.5,306.5C 384.751,306.726 382.084,306.393 379.5,305.5C 378.571,306.689 378.238,308.022 378.5,309.5C 356.833,309.5 335.167,309.5 313.5,309.5C 313.5,293.833 313.5,278.167 313.5,262.5C 345.833,262.5 378.167,262.5 410.5,262.5C 410.175,270.019 410.508,277.352 411.5,284.5C 428.167,284.5 444.833,284.5 461.5,284.5C 462.492,277.352 462.825,270.019 462.5,262.5C 469.833,262.5 477.167,262.5 484.5,262.5C 484.5,269.833 484.5,277.167 484.5,284.5C 501.5,284.5 518.5,284.5 535.5,284.5C 535.5,276.833 535.5,269.167 535.5,261.5 Z"/></g>
<g><path style="opacity:1" fill="#c39f13" d="M 422.5,298.5 C 421.521,301.625 421.187,304.958 421.5,308.5C 424.082,308.975 426.082,308.308 427.5,306.5C 428.906,306.973 429.573,307.973 429.5,309.5C 426.5,309.5 423.5,309.5 420.5,309.5C 420.334,305.154 420.501,300.821 421,296.5C 421.717,297.044 422.217,297.711 422.5,298.5 Z"/></g>
<g><path style="opacity:1" fill="#e5cf13" d="M 580.5,308.5 C 577.713,309.477 574.713,309.81 571.5,309.5C 571.33,308.178 571.663,307.011 572.5,306C 575.146,305.503 577.813,305.336 580.5,305.5C 580.5,306.5 580.5,307.5 580.5,308.5 Z"/></g>
<g><path style="opacity:1" fill="#e5cf13" d="M 552.5,309.5 C 549.5,309.5 546.5,309.5 543.5,309.5C 543.5,308.167 543.5,306.833 543.5,305.5C 546.187,305.336 548.854,305.503 551.5,306C 552.337,307.011 552.67,308.178 552.5,309.5 Z"/></g>
<g><path style="opacity:1" fill="#e7d013" d="M 466.5,309.5 C 463.5,309.5 460.5,309.5 457.5,309.5C 457.33,308.178 457.663,307.011 458.5,306C 461.146,305.503 463.813,305.336 466.5,305.5C 466.5,306.833 466.5,308.167 466.5,309.5 Z"/></g>
<g><path style="opacity:1" fill="#e8d213" d="M 408.5,309.5 C 405.5,309.5 402.5,309.5 399.5,309.5C 399.237,306.266 400.737,304.932 404,305.5C 407.263,304.932 408.763,306.266 408.5,309.5 Z"/></g>
<g><path style="opacity:1" fill="#e7d711" d="M 599.5,309.5 C 597.5,309.5 595.5,309.5 593.5,309.5C 593.5,307.167 593.5,304.833 593.5,302.5C 597.085,303.266 599.085,305.599 599.5,309.5 Z"/></g>
<g><path style="opacity:1" fill="#e7d711" d="M 493.5,309.5 C 491.5,309.5 489.5,309.5 487.5,309.5C 487.5,307.167 487.5,304.833 487.5,302.5C 491.085,303.266 493.085,305.599 493.5,309.5 Z"/></g>
<g><path style="opacity:1" fill="#f3e811" d="M 422.5,298.5 C 424.653,300.794 426.32,303.46 427.5,306.5C 426.082,308.308 424.082,308.975 421.5,308.5C 421.187,304.958 421.521,301.625 422.5,298.5 Z"/></g>
<g><path style="opacity:1" fill="#b4ac0c" d="M 575.5,294.5 C 577.655,296.617 578.655,299.284 578.5,302.5C 576.833,302.5 575.167,302.5 573.5,302.5C 573.963,299.779 574.629,297.112 575.5,294.5 Z"/></g>
<g><path style="opacity:1" fill="#9b930b" d="M 548.5,295.5 C 547.262,297.214 546.595,299.214 546.5,301.5C 547.552,301.649 548.552,301.483 549.5,301C 548.62,299.644 548.286,298.144 548.5,296.5C 549.738,298.214 550.405,300.214 550.5,302.5C 548.833,302.5 547.167,302.5 545.5,302.5C 545.28,299.6 545.946,296.933 547.5,294.5C 548.107,294.624 548.44,294.957 548.5,295.5 Z"/></g>
<g><path style="opacity:1" fill="#f9ed11" d="M 548.5,295.5 C 548.5,295.833 548.5,296.167 548.5,296.5C 548.286,298.144 548.62,299.644 549.5,301C 548.552,301.483 547.552,301.649 546.5,301.5C 546.595,299.214 547.262,297.214 548.5,295.5 Z"/></g>
<g><path style="opacity:1" fill="#c8bf0e" d="M 461.5,294.5 C 463.655,296.617 464.655,299.284 464.5,302.5C 462.833,302.5 461.167,302.5 459.5,302.5C 459.963,299.779 460.629,297.112 461.5,294.5 Z"/></g>
<g><path style="opacity:1" fill="#c8bf0e" d="M 403.5,294.5 C 405.267,296.792 406.267,299.458 406.5,302.5C 404.833,302.5 403.167,302.5 401.5,302.5C 401.56,299.659 402.226,296.993 403.5,294.5 Z"/></g>
<g><path style="opacity:1" fill="#ed3b35" d="M 672.5,270.5 C 681.833,270.5 691.167,270.5 700.5,270.5C 700.5,279.5 700.5,288.5 700.5,297.5C 691.167,297.5 681.833,297.5 672.5,297.5C 672.5,288.5 672.5,279.5 672.5,270.5 Z"/></g>
<g><path style="opacity:1" fill="#e9de10" d="M 593.5,293.5 C 595.167,293.5 596.833,293.5 598.5,293.5C 599.167,297.5 597.5,299.167 593.5,298.5C 593.5,296.833 593.5,295.167 593.5,293.5 Z"/></g>
<g><path style="opacity:1" fill="#f0e410" d="M 507.5,293.5 C 514.314,293.49 516.814,296.823 515,303.5C 511.818,307.424 508.818,307.424 506,303.5C 505.037,299.851 505.537,296.518 507.5,293.5 Z"/></g>
<g><path style="opacity:1" fill="#e9de10" d="M 487.5,293.5 C 489.167,293.5 490.833,293.5 492.5,293.5C 493.167,297.5 491.5,299.167 487.5,298.5C 487.5,296.833 487.5,295.167 487.5,293.5 Z"/></g>
<g><path style="opacity:1" fill="#fbc719" d="M 675.5,274.5 C 675.833,274.5 676.167,274.5 676.5,274.5C 676.5,280.833 676.5,287.167 676.5,293.5C 683.167,293.5 689.833,293.5 696.5,293.5C 696.5,293.833 696.5,294.167 696.5,294.5C 689.5,294.5 682.5,294.5 675.5,294.5C 675.5,287.833 675.5,281.167 675.5,274.5 Z"/></g>
<g><path style="opacity:1" fill="#bbb20d" d="M 390.5,289.5 C 392.256,290.552 392.923,292.219 392.5,294.5C 389.302,293.964 386.635,294.631 384.5,296.5C 383.903,296.265 383.57,295.765 383.5,295C 385.359,292.453 387.692,291.953 390.5,293.5C 391.626,292.192 391.626,290.858 390.5,289.5 Z"/></g>
<g><path style="opacity:1" fill="#81760a" d="M 598.5,290.5 C 595.5,290.5 592.5,290.5 589.5,290.5C 589.5,296.833 589.5,303.167 589.5,309.5C 588.167,309.5 586.833,309.5 585.5,309.5C 585.5,309.167 585.5,308.833 585.5,308.5C 586.5,308.5 587.5,308.5 588.5,308.5C 588.5,302.167 588.5,295.833 588.5,289.5C 592.042,289.187 595.375,289.521 598.5,290.5 Z"/></g>
<g><path style="opacity:1" fill="#716b07" d="M 492.5,290.5 C 489.5,290.5 486.5,290.5 483.5,290.5C 483.5,296.833 483.5,303.167 483.5,309.5C 483.167,309.5 482.833,309.5 482.5,309.5C 482.5,302.833 482.5,296.167 482.5,289.5C 486.042,289.187 489.375,289.521 492.5,290.5 Z"/></g>
<g><path style="opacity:1" fill="#3e3b05" d="M 421.5,290.5 C 420.167,290.5 418.833,290.5 417.5,290.5C 417.823,297.022 417.49,303.355 416.5,309.5C 416.5,302.833 416.5,296.167 416.5,289.5C 418.415,289.216 420.081,289.549 421.5,290.5 Z"/></g>
<g><path style="opacity:1" fill="#514c05" d="M 453.5,290.5 C 448.5,290.5 443.5,290.5 438.5,290.5C 438.5,291.5 438.5,292.5 438.5,293.5C 437.566,292.432 437.232,291.099 437.5,289.5C 443.026,289.179 448.36,289.512 453.5,290.5 Z"/></g>
<g><path style="opacity:1" fill="#f3712a" d="M 559.5,261.5 C 560.492,268.648 560.825,275.981 560.5,283.5C 576.833,283.5 593.167,283.5 609.5,283.5C 609.175,275.981 609.508,268.648 610.5,261.5C 610.5,269.167 610.5,276.833 610.5,284.5C 593.5,284.5 576.5,284.5 559.5,284.5C 559.5,276.833 559.5,269.167 559.5,261.5 Z"/></g>
<g><path style="opacity:1" fill="#f8a121" d="M 675.5,274.5 C 682.648,273.508 689.981,273.175 697.5,273.5C 697.825,280.687 697.491,287.687 696.5,294.5C 696.5,294.167 696.5,293.833 696.5,293.5C 696.5,287.167 696.5,280.833 696.5,274.5C 689.833,274.5 683.167,274.5 676.5,274.5C 676.167,274.5 675.833,274.5 675.5,274.5 Z"/></g>
<g><path style="opacity:1" fill="#fff212" d="M 676.5,274.5 C 683.167,274.5 689.833,274.5 696.5,274.5C 696.5,280.833 696.5,287.167 696.5,293.5C 689.833,293.5 683.167,293.5 676.5,293.5C 676.5,287.167 676.5,280.833 676.5,274.5 Z"/></g>
<g><path style="opacity:1" fill="#f37529" d="M 348.5,297.5 C 348.5,288.833 348.5,280.167 348.5,271.5C 339.5,271.5 330.5,271.5 321.5,271.5C 321.5,280.167 321.5,288.833 321.5,297.5C 320.507,288.682 320.173,279.682 320.5,270.5C 330.167,270.5 339.833,270.5 349.5,270.5C 349.827,279.682 349.493,288.682 348.5,297.5 Z"/></g>
<g><path style="opacity:1" fill="#ef4834" d="M 348.5,297.5 C 339.5,297.5 330.5,297.5 321.5,297.5C 321.5,288.833 321.5,280.167 321.5,271.5C 330.5,271.5 339.5,271.5 348.5,271.5C 348.5,280.167 348.5,288.833 348.5,297.5 Z"/></g>
<g><path style="opacity:1" fill="#feef12" d="M 324.5,274.5 C 331.5,274.5 338.5,274.5 345.5,274.5C 345.5,281.167 345.5,287.833 345.5,294.5C 338.5,294.5 331.5,294.5 324.5,294.5C 324.5,287.833 324.5,281.167 324.5,274.5 Z"/></g>
<g><path style="opacity:1" fill="#fbd318" d="M 313.5,262.5 C 345.996,261.502 378.662,261.168 411.5,261.5C 411.5,269.167 411.5,276.833 411.5,284.5C 410.508,277.352 410.175,270.019 410.5,262.5C 378.167,262.5 345.833,262.5 313.5,262.5 Z"/></g>
<g><path style="opacity:1" fill="#ed3336" d="M 610.5,261.5 C 609.508,268.648 609.175,275.981 609.5,283.5C 593.167,283.5 576.833,283.5 560.5,283.5C 560.825,275.981 560.492,268.648 559.5,261.5C 551.5,261.5 543.5,261.5 535.5,261.5C 534.508,268.648 534.175,275.981 534.5,283.5C 518.167,283.5 501.833,283.5 485.5,283.5C 485.825,275.981 485.492,268.648 484.5,261.5C 476.833,261.5 469.167,261.5 461.5,261.5C 461.5,269.167 461.5,276.833 461.5,284.5C 444.833,284.5 428.167,284.5 411.5,284.5C 411.5,276.833 411.5,269.167 411.5,261.5C 379.003,260.668 346.336,260.168 313.5,260C 445.167,259.333 576.833,259.333 708.5,260C 675.664,260.168 642.997,260.668 610.5,261.5 Z"/></g>
<g><path style="opacity:1" fill="#fbcb19" d="M 736.5,323.5 C 585.17,321.501 433.504,320.835 281.5,321.5C 432.763,320.5 584.763,320.167 737.5,320.5C 737.737,321.791 737.404,322.791 736.5,323.5 Z"/></g>
<g><path style="opacity:1" fill="#fef112" d="M 281.5,321.5 C 433.504,320.835 585.17,321.501 736.5,323.5C 735.386,324.885 734.386,326.385 733.5,328C 584.167,328.667 434.833,328.667 285.5,328C 283.942,325.948 282.608,323.781 281.5,321.5 Z"/></g>
<g><path style="opacity:1" fill="#494949" d="M 84.5,319.5 C 83.746,324.463 83.4126,329.463 83.5,334.5C 82.838,332.696 82.5046,330.696 82.5,328.5C 82.3425,325.186 83.0092,322.186 84.5,319.5 Z"/></g>
<g><path style="opacity:1" fill="#fff211" d="M 731.5,333.5 C 731.5,335.833 731.5,338.167 731.5,340.5C 583.5,340.5 435.5,340.5 287.5,340.5C 287.5,338.167 287.5,335.833 287.5,333.5C 435.5,333.5 583.5,333.5 731.5,333.5 Z"/></g>
<g><path style="opacity:1" fill="#fcdc16" d="M 731.5,333.5 C 583.5,333.5 435.5,333.5 287.5,333.5C 287.5,335.833 287.5,338.167 287.5,340.5C 435.5,340.5 583.5,340.5 731.5,340.5C 583.334,341.5 435.001,341.833 286.5,341.5C 286.5,338.5 286.5,335.5 286.5,332.5C 435.001,332.167 583.334,332.5 731.5,333.5 Z"/></g>
<g><path style="opacity:1" fill="#9e9e9e" d="M 114.5,349.5 C 119.463,350.254 124.463,350.587 129.5,350.5C 127.696,351.162 125.696,351.495 123.5,351.5C 120.186,351.657 117.186,350.991 114.5,349.5 Z"/></g>
<g><path style="opacity:1" fill="#ed3c35" d="M 313.5,363.5 C 313.168,420.669 313.501,477.669 314.5,534.5C 336.833,534.5 359.167,534.5 381.5,534.5C 381.5,514.167 381.5,493.833 381.5,473.5C 381.777,467.777 383.111,462.443 385.5,457.5C 386.492,457.328 387.158,457.662 387.5,458.5C 386.912,463.532 386.079,468.532 385,473.5C 384.5,545.833 384.333,618.166 384.5,690.5C 381.167,690.5 377.833,690.5 374.5,690.5C 374.5,703.5 374.5,716.5 374.5,729.5C 381.5,729.5 388.5,729.5 395.5,729.5C 395.17,645.429 395.503,561.429 396.5,477.5C 398.166,561.328 399.166,645.328 399.5,729.5C 399.5,742.167 399.5,754.833 399.5,767.5C 364.833,767.5 330.167,767.5 295.5,767.5C 295.83,750.325 295.497,733.325 294.5,716.5C 294.004,598.834 293.671,481.167 293.5,363.5C 293.81,362.262 294.31,362.262 295,363.5C 295.168,388.337 295.668,413.003 296.5,437.5C 296.5,469.833 296.5,502.167 296.5,534.5C 300.5,534.5 304.5,534.5 308.5,534.5C 308.5,477.5 308.5,420.5 308.5,363.5C 304.688,362.676 300.688,362.176 296.5,362C 362.167,361.333 427.833,361.333 493.5,362C 433.332,362.167 373.332,362.667 313.5,363.5 Z"/></g>
<g><path style="opacity:1" fill="#f05332" d="M 284.5,344.5 C 285.959,344.433 287.292,344.766 288.5,345.5C 361.83,346.833 435.497,347.5 509.5,347.5C 583.503,347.5 657.17,346.833 730.5,345.5C 731.268,346.263 731.768,347.263 732,348.5C 732.383,347.944 732.883,347.611 733.5,347.5C 734.376,347.369 735.043,347.702 735.5,348.5C 733.333,352.167 731.167,355.833 729,359.5C 728.5,452.833 728.333,546.166 728.5,639.5C 727.667,546.668 727.167,453.668 727,360.5C 725.845,418.61 725.012,476.61 724.5,534.5C 724.5,534.167 724.5,533.833 724.5,533.5C 724.5,476.833 724.5,420.167 724.5,363.5C 720.833,363.5 717.167,363.5 713.5,363.5C 713.167,363.5 712.833,363.5 712.5,363.5C 716.312,362.676 720.312,362.176 724.5,362C 658.833,361.333 593.167,361.333 527.5,362C 587.668,362.167 647.668,362.667 707.5,363.5C 647.5,363.5 587.5,363.5 527.5,363.5C 527.5,369.833 527.5,376.167 527.5,382.5C 530.167,382.5 532.833,382.5 535.5,382.5C 567.399,387.032 594.566,400.699 617,423.5C 628.503,437.174 635.67,452.841 638.5,470.5C 637.728,469.306 636.728,468.306 635.5,467.5C 626.1,433.253 604.767,409.42 571.5,396C 557.281,390.612 542.614,387.112 527.5,385.5C 527.108,391.069 525.774,396.403 523.5,401.5C 552.722,403.789 578.722,413.956 601.5,432C 613.706,442.91 621.372,456.41 624.5,472.5C 623.59,470.981 622.757,469.315 622,467.5C 621.51,468.793 621.343,470.127 621.5,471.5C 612.6,443.763 594.266,424.929 566.5,415C 551.647,409.414 536.313,406.414 520.5,406C 516.291,409.97 511.291,411.304 505.5,410C 503.545,409.047 501.878,407.713 500.5,406C 473.196,405.991 448.529,413.991 426.5,430C 412.28,441.22 403.446,455.72 400,473.5C 399.5,558.833 399.333,644.166 399.5,729.5C 399.166,645.328 398.166,561.328 396.5,477.5C 399.063,457.543 408.063,441.043 423.5,428C 445.595,412.297 470.261,403.297 497.5,401C 495.48,395.719 494.48,390.219 494.5,384.5C 458.643,387.053 428.476,401.387 404,427.5C 396.894,437.049 391.394,447.382 387.5,458.5C 387.158,457.662 386.492,457.328 385.5,457.5C 387.839,446.822 392.339,437.156 399,428.5C 419.786,403.681 446.286,388.514 478.5,383C 483.434,381.84 488.434,381.34 493.5,381.5C 494.49,375.69 494.823,369.69 494.5,363.5C 434.167,363.5 373.833,363.5 313.5,363.5C 373.332,362.667 433.332,362.167 493.5,362C 427.833,361.333 362.167,361.333 296.5,362C 300.688,362.176 304.688,362.676 308.5,363.5C 304.5,363.5 300.5,363.5 296.5,363.5C 296.5,388.167 296.5,412.833 296.5,437.5C 295.668,413.003 295.168,388.337 295,363.5C 294.31,362.262 293.81,362.262 293.5,363.5C 289.942,358.738 286.609,353.738 283.5,348.5C 284.246,347.264 284.579,345.93 284.5,344.5 Z"/></g>
<g><path style="opacity:1" fill="#feec13" d="M 289.5,352.5 C 435.999,351.334 582.666,351.167 729.5,352C 728.084,354.835 726.417,357.502 724.5,360C 581.167,360.667 437.833,360.667 294.5,360C 293.182,357.176 291.515,354.676 289.5,352.5 Z"/></g>
<g><path style="opacity:1" fill="#ed3037" d="M 288.5,348.5 C 435.973,348.002 583.307,348.502 730.5,350C 656.833,350.167 583.167,350.333 509.5,350.5C 435.497,350.5 361.83,349.833 288.5,348.5 Z"/></g>
<g><path style="opacity:1" fill="#fef012" d="M 288.5,345.5 C 435.833,345.5 583.167,345.5 730.5,345.5C 657.17,346.833 583.503,347.5 509.5,347.5C 435.497,347.5 361.83,346.833 288.5,345.5 Z"/></g>
<g><path style="opacity:1" fill="#ed3c35" d="M 728.5,639.5 C 728.5,682.5 728.5,725.5 728.5,768.5C 693.167,768.5 657.833,768.5 622.5,768.5C 622.82,669.485 622.486,570.485 621.5,471.5C 621.343,470.127 621.51,468.793 622,467.5C 622.757,469.315 623.59,470.981 624.5,472.5C 625.499,557.998 625.833,643.665 625.5,729.5C 632.5,729.5 639.5,729.5 646.5,729.5C 646.5,716.5 646.5,703.5 646.5,690.5C 643.713,689.523 640.713,689.19 637.5,689.5C 637.833,618.665 637.499,547.998 636.5,477.5C 635.949,474.193 635.616,470.86 635.5,467.5C 636.728,468.306 637.728,469.306 638.5,470.5C 639.451,471.919 639.784,473.585 639.5,475.5C 639.5,495.167 639.5,514.833 639.5,534.5C 662.167,534.5 684.833,534.5 707.5,534.5C 707.5,495.167 707.5,455.833 707.5,416.5C 707.5,399.167 707.5,381.833 707.5,364.5C 707.5,364.167 707.5,363.833 707.5,363.5C 647.668,362.667 587.668,362.167 527.5,362C 593.167,361.333 658.833,361.333 724.5,362C 720.312,362.176 716.312,362.676 712.5,363.5C 712.5,420.5 712.5,477.5 712.5,534.5C 716.5,534.5 720.5,534.5 724.5,534.5C 725.012,476.61 725.845,418.61 727,360.5C 727.167,453.668 727.667,546.668 728.5,639.5 Z"/></g>
<g><path style="opacity:1" fill="#070707" d="M 921.5,362.5 C 947.758,359.114 962.091,370.448 964.5,396.5C 964.276,412.453 956.609,422.953 941.5,428C 911.626,436.725 895.292,425.559 892.5,394.5C 892.845,382.641 898.179,373.807 908.5,368C 912.893,366.044 917.226,364.211 921.5,362.5 Z"/></g>
<g><path style="opacity:1" fill="#fbc21b" d="M 313.5,363.5 C 373.833,363.5 434.167,363.5 494.5,363.5C 494.823,369.69 494.49,375.69 493.5,381.5C 493.5,375.833 493.5,370.167 493.5,364.5C 433.833,364.5 374.167,364.5 314.5,364.5C 314.5,420.833 314.5,477.167 314.5,533.5C 314.5,533.833 314.5,534.167 314.5,534.5C 313.501,477.669 313.168,420.669 313.5,363.5 Z"/></g>
<g><path style="opacity:1" fill="#fcce19" d="M 707.5,363.5 C 707.5,363.833 707.5,364.167 707.5,364.5C 647.833,364.5 588.167,364.5 528.5,364.5C 528.5,370.167 528.5,375.833 528.5,381.5C 531.059,381.198 533.393,381.532 535.5,382.5C 532.833,382.5 530.167,382.5 527.5,382.5C 527.5,376.167 527.5,369.833 527.5,363.5C 587.5,363.5 647.5,363.5 707.5,363.5 Z"/></g>
<g><path style="opacity:1" fill="#fef112" d="M 713.5,363.5 C 717.167,363.5 720.833,363.5 724.5,363.5C 724.5,420.167 724.5,476.833 724.5,533.5C 720.833,533.5 717.167,533.5 713.5,533.5C 713.5,476.833 713.5,420.167 713.5,363.5 Z"/></g>
<g><path style="opacity:1" fill="#feee12" d="M 308.5,363.5 C 308.5,420.5 308.5,477.5 308.5,534.5C 304.5,534.5 300.5,534.5 296.5,534.5C 296.5,502.167 296.5,469.833 296.5,437.5C 296.5,412.833 296.5,388.167 296.5,363.5C 300.5,363.5 304.5,363.5 308.5,363.5 Z"/></g>
<g><path style="opacity:1" fill="#fef012" d="M 493.5,381.5 C 488.434,381.34 483.434,381.84 478.5,383C 446.286,388.514 419.786,403.681 399,428.5C 392.339,437.156 387.839,446.822 385.5,457.5C 383.111,462.443 381.777,467.777 381.5,473.5C 380.503,493.326 380.17,513.326 380.5,533.5C 358.5,533.5 336.5,533.5 314.5,533.5C 314.5,477.167 314.5,420.833 314.5,364.5C 374.167,364.5 433.833,364.5 493.5,364.5C 493.5,370.167 493.5,375.833 493.5,381.5 Z"/></g>
<g><path style="opacity:1" fill="#feef12" d="M 499.5,363.5 C 502.167,363.5 504.833,363.5 507.5,363.5C 507.5,369.167 507.5,374.833 507.5,380.5C 504.833,380.5 502.167,380.5 499.5,380.5C 499.5,374.833 499.5,369.167 499.5,363.5 Z"/></g>
<g><path style="opacity:1" fill="#faba1d" d="M 513.5,363.5 C 516.5,363.5 519.5,363.5 522.5,363.5C 522.5,369.5 522.5,375.5 522.5,381.5C 519.5,381.5 516.5,381.5 513.5,381.5C 513.5,375.5 513.5,369.5 513.5,363.5 Z"/></g>
<g><path style="opacity:1" fill="#fef211" d="M 514.5,364.5 C 516.833,364.5 519.167,364.5 521.5,364.5C 521.5,369.833 521.5,375.167 521.5,380.5C 519.167,380.5 516.833,380.5 514.5,380.5C 514.5,375.167 514.5,369.833 514.5,364.5 Z"/></g>
<g><path style="opacity:1" fill="#feef12" d="M 707.5,364.5 C 707.5,381.833 707.5,399.167 707.5,416.5C 706.501,455.33 706.168,494.33 706.5,533.5C 684.5,533.5 662.5,533.5 640.5,533.5C 640.83,513.993 640.497,494.659 639.5,475.5C 639.784,473.585 639.451,471.919 638.5,470.5C 635.67,452.841 628.503,437.174 617,423.5C 594.566,400.699 567.399,387.032 535.5,382.5C 533.393,381.532 531.059,381.198 528.5,381.5C 528.5,375.833 528.5,370.167 528.5,364.5C 588.167,364.5 647.833,364.5 707.5,364.5 Z"/></g>
<g><path style="opacity:1" fill="#f2652c" d="M 688.5,370.5 C 643.821,369.839 599.487,370.505 555.5,372.5C 554.596,371.791 554.263,370.791 554.5,369.5C 599.336,369.168 644.003,369.501 688.5,370.5 Z"/></g>
<g><path style="opacity:1" fill="#f2662c" d="M 466.5,371.5 C 422.336,370.501 378.003,370.168 333.5,370.5C 333.5,422.5 333.5,474.5 333.5,526.5C 339.167,526.5 344.833,526.5 350.5,526.5C 350.194,523.615 350.527,520.948 351.5,518.5C 351.5,521.5 351.5,524.5 351.5,527.5C 345.167,527.5 338.833,527.5 332.5,527.5C 332.5,474.833 332.5,422.167 332.5,369.5C 377.505,369.167 422.505,369.5 467.5,370.5C 467.376,371.107 467.043,371.44 466.5,371.5 Z"/></g>
<g><path style="opacity:1" fill="#ed3538" d="M 466.5,371.5 C 465.204,376.633 462.204,380.467 457.5,383C 447.609,386.033 437.609,388.7 427.5,391C 403.564,399.608 385.064,414.775 372,436.5C 358.584,462.165 351.75,489.499 351.5,518.5C 350.527,520.948 350.194,523.615 350.5,526.5C 344.833,526.5 339.167,526.5 333.5,526.5C 333.5,474.5 333.5,422.5 333.5,370.5C 378.003,370.168 422.336,370.501 466.5,371.5 Z"/></g>
<g><path style="opacity:1" fill="#ed3839" d="M 688.5,370.5 C 688.5,422.833 688.5,475.167 688.5,527.5C 682.5,527.5 676.5,527.5 670.5,527.5C 670.629,518.428 669.962,509.428 668.5,500.5C 668.72,495.9 668.054,491.567 666.5,487.5C 662.578,456.489 649.245,430.322 626.5,409C 609.038,395.775 589.372,387.775 567.5,385C 561.217,382.886 557.217,378.719 555.5,372.5C 599.487,370.505 643.821,369.839 688.5,370.5 Z"/></g>
<g><path style="opacity:1" fill="#080808" d="M 81.5,376.5 C 83.5145,377.924 85.8478,378.59 88.5,378.5C 103.125,381.608 117.458,385.275 131.5,389.5C 130.561,393.464 129.728,397.464 129,401.5C 112.1,407.369 95.2663,413.369 78.5,419.5C 92.6628,423.582 106.996,426.916 121.5,429.5C 120.993,433.86 120.327,438.193 119.5,442.5C 96.8283,437.499 74.1616,432.499 51.5,427.5C 51.6981,422.471 52.6981,417.638 54.5,413C 71.6043,407.613 88.6043,401.946 105.5,396C 90.9462,392.297 76.2795,389.13 61.5,386.5C 61.2705,381.995 61.9372,377.661 63.5,373.5C 69.5389,374.284 75.5389,375.284 81.5,376.5 Z"/></g>
<g><path style="opacity:1" fill="#8e8e8e" d="M 81.5,376.5 C 84.1522,376.41 86.4855,377.076 88.5,378.5C 85.8478,378.59 83.5145,377.924 81.5,376.5 Z"/></g>
<g><path style="opacity:1" fill="#f9f9f9" d="M 926.5,376.5 C 947.989,375.467 955.822,385.133 950,405.5C 939.221,415.987 926.721,418.82 912.5,414C 902.849,404.503 902.182,394.503 910.5,384C 915.557,380.635 920.89,378.135 926.5,376.5 Z"/></g>
<g><path style="opacity:1" fill="#f27174" d="M 340.5,380.5 C 371.331,379.336 402.331,379.169 433.5,380C 432.956,380.717 432.289,381.217 431.5,381.5C 401.338,380.502 371.005,380.169 340.5,380.5 Z"/></g>
<g><path style="opacity:1" fill="#f27174" d="M 680.5,380.5 C 649.995,380.169 619.662,380.502 589.5,381.5C 588.711,381.217 588.044,380.717 587.5,380C 618.669,379.169 649.669,379.336 680.5,380.5 Z"/></g>
<g><path style="opacity:1" fill="#f6a9ab" d="M 340.5,380.5 C 371.005,380.169 401.338,380.502 431.5,381.5C 388.829,396.679 361.996,426.345 351,470.5C 347.19,485.591 345.024,500.924 344.5,516.5C 343.167,516.5 341.833,516.5 340.5,516.5C 340.5,471.167 340.5,425.833 340.5,380.5 Z"/></g>
<g><path style="opacity:1" fill="#f6aaab" d="M 589.5,381.5 C 619.662,380.502 649.995,380.169 680.5,380.5C 680.5,425.833 680.5,471.167 680.5,516.5C 679.167,516.5 677.833,516.5 676.5,516.5C 676.173,486.697 669.006,458.697 655,432.5C 639.193,407.87 617.359,390.87 589.5,381.5 Z"/></g>
<g><path style="opacity:1" fill="#feec13" d="M 499.5,384.5 C 502.167,384.5 504.833,384.5 507.5,384.5C 507.83,391.2 507.497,397.866 506.5,404.5C 503.939,402.393 502.106,399.726 501,396.5C 500.172,392.534 499.672,388.534 499.5,384.5 Z"/></g>
<g><path style="opacity:1" fill="#fbc01b" d="M 514.5,384.5 C 514.177,391.022 514.51,397.355 515.5,403.5C 515.44,404.043 515.107,404.376 514.5,404.5C 513.182,397.678 513.182,391.011 514.5,384.5 Z"/></g>
<g><path style="opacity:1" fill="#feed13" d="M 396.5,477.5 C 395.503,561.429 395.17,645.429 395.5,729.5C 388.5,729.5 381.5,729.5 374.5,729.5C 374.5,716.5 374.5,703.5 374.5,690.5C 377.833,690.5 381.167,690.5 384.5,690.5C 384.333,618.166 384.5,545.833 385,473.5C 386.079,468.532 386.912,463.532 387.5,458.5C 391.394,447.382 396.894,437.049 404,427.5C 428.476,401.387 458.643,387.053 494.5,384.5C 494.48,390.219 495.48,395.719 497.5,401C 470.261,403.297 445.595,412.297 423.5,428C 408.063,441.043 399.063,457.543 396.5,477.5 Z"/></g>
<g><path style="opacity:1" fill="#feef12" d="M 514.5,384.5 C 516.833,384.5 519.167,384.5 521.5,384.5C 522.035,390.521 520.868,396.187 518,401.5C 517.292,402.381 516.458,403.047 515.5,403.5C 514.51,397.355 514.177,391.022 514.5,384.5 Z"/></g>
<g><path style="opacity:1" fill="#feec13" d="M 635.5,467.5 C 635.616,470.86 635.949,474.193 636.5,477.5C 636.5,548.5 636.5,619.5 636.5,690.5C 639.833,690.5 643.167,690.5 646.5,690.5C 646.5,703.5 646.5,716.5 646.5,729.5C 639.5,729.5 632.5,729.5 625.5,729.5C 625.833,643.665 625.499,557.998 624.5,472.5C 621.372,456.41 613.706,442.91 601.5,432C 578.722,413.956 552.722,403.789 523.5,401.5C 525.774,396.403 527.108,391.069 527.5,385.5C 542.614,387.112 557.281,390.612 571.5,396C 604.767,409.42 626.1,433.253 635.5,467.5 Z"/></g>
<g><path style="opacity:1" fill="#ee423c" d="M 359.5,384.5 C 360.552,384.351 361.552,384.517 362.5,385C 365.527,387.406 368.361,389.906 371,392.5C 394.695,387.595 396.529,391.762 376.5,405C 368.928,411.901 362.095,419.401 356,427.5C 355.726,430.649 356.392,433.649 358,436.5C 359.289,445.298 356.955,452.965 351,459.5C 349.99,453.603 348.824,447.77 347.5,442C 348.037,437.063 349.37,432.396 351.5,428C 348.335,419.179 348.835,410.679 353,402.5C 354.684,400.649 356.517,398.982 358.5,397.5C 359.177,393.092 359.51,388.759 359.5,384.5 Z"/></g>
<g><path style="opacity:1" fill="#feea14" d="M 362.5,390.5 C 365.25,391.984 367.584,393.984 369.5,396.5C 374,394.617 378.667,394.117 383.5,395C 372.658,403.342 362.992,412.842 354.5,423.5C 350.367,413.571 352.7,405.571 361.5,399.5C 362.484,396.572 362.817,393.572 362.5,390.5 Z"/></g>
<g><path style="opacity:1" fill="#898989" d="M 984.5,403.5 C 985.924,405.515 986.59,407.848 986.5,410.5C 985.076,408.485 984.41,406.152 984.5,403.5 Z"/></g>
<g><path style="opacity:1" fill="#ee433c" d="M 659.5,384.5 C 661.252,384.418 662.252,385.251 662.5,387C 661.464,390.121 661.297,393.287 662,396.5C 672.984,404.927 675.484,415.427 669.5,428C 674.36,438.32 674.527,448.82 670,459.5C 666.612,455.391 664.279,450.725 663,445.5C 662.832,439.365 663.498,433.365 665,427.5C 655.627,415.126 644.627,404.46 632,395.5C 631.506,393.866 631.34,392.199 631.5,390.5C 637.795,390.125 643.961,390.791 650,392.5C 653.323,390.01 656.489,387.343 659.5,384.5 Z"/></g>
<g><path style="opacity:1" fill="#feeb13" d="M 656.5,390.5 C 658.177,393.092 659.343,396.092 660,399.5C 668.573,405.871 670.907,414.204 667,424.5C 658.5,413.333 648.667,403.5 637.5,395C 642.299,394.218 646.966,394.718 651.5,396.5C 653.907,395.095 655.574,393.095 656.5,390.5 Z"/></g>
<g><path style="opacity:1" fill="#a6a6a6" d="M 34.5,424.5 C 34.7599,430.194 33.7599,435.527 31.5,440.5C 31.9556,434.939 32.9556,429.606 34.5,424.5 Z"/></g>
<g><path style="opacity:1" fill="#98900b" d="M 164.5,425.5 C 164.59,428.152 163.924,430.485 162.5,432.5C 162.41,429.848 163.076,427.515 164.5,425.5 Z"/></g>
<g><path style="opacity:1" fill="#827b09" d="M 859.5,427.5 C 860.924,429.515 861.59,431.848 861.5,434.5C 860.076,432.485 859.41,430.152 859.5,427.5 Z"/></g>
<g><path style="opacity:1" fill="#fee515" d="M 667.5,434.5 C 668.117,434.611 668.617,434.944 669,435.5C 669.879,440.287 669.545,444.953 668,449.5C 664.921,444.618 664.755,439.618 667.5,434.5 Z"/></g>
<g><path style="opacity:1" fill="#fee615" d="M 352.5,434.5 C 356.268,439.551 356.435,444.884 353,450.5C 351.276,445.173 351.109,439.84 352.5,434.5 Z"/></g>
<g><path style="opacity:1" fill="#fbc71a" d="M 712.5,363.5 C 712.833,363.5 713.167,363.5 713.5,363.5C 713.5,420.167 713.5,476.833 713.5,533.5C 717.167,533.5 720.833,533.5 724.5,533.5C 724.5,533.833 724.5,534.167 724.5,534.5C 720.5,534.5 716.5,534.5 712.5,534.5C 712.5,477.5 712.5,420.5 712.5,363.5 Z"/></g>
<g><path style="opacity:1" fill="#070707" d="M 938.5,466.5 C 939.924,464.485 940.59,462.152 940.5,459.5C 945.344,445.244 954.677,441.078 968.5,447C 972.874,450.203 975.874,454.37 977.5,459.5C 978.307,465.464 978.64,471.464 978.5,477.5C 977.167,488.833 970.833,495.167 959.5,496.5C 959.644,492.625 959.31,488.792 958.5,485C 959.622,482.418 961.622,480.752 964.5,480C 967.443,475.29 968.276,470.123 967,464.5C 963.569,456.141 959.236,455.474 954,462.5C 952.024,469.379 950.691,476.379 950,483.5C 946.573,496.636 938.073,502.469 924.5,501C 912.766,496.733 907.099,488.233 907.5,475.5C 907.392,470.13 907.725,464.797 908.5,459.5C 912.272,450.354 918.939,445.687 928.5,445.5C 929.767,449.428 930.267,453.428 930,457.5C 918.835,461.688 915.501,469.355 920,480.5C 922.228,485.766 926.062,487.933 931.5,487C 936.109,481.008 938.442,474.175 938.5,466.5 Z"/></g>
<g><path style="opacity:1" fill="#a7a7a7" d="M 49.5,451.5 C 57.0787,451.094 64.412,451.761 71.5,453.5C 63.9864,453.204 56.6531,452.538 49.5,451.5 Z"/></g>
<g><path style="opacity:1" fill="#090909" d="M 49.5,451.5 C 56.6531,452.538 63.9864,453.204 71.5,453.5C 81.5575,454.116 91.5575,455.283 101.5,457C 108.974,459.14 113.807,463.974 116,471.5C 118.104,483.761 115.604,494.928 108.5,505C 105.446,507.194 102.112,508.861 98.5,510C 83.796,510.61 69.1293,510.11 54.5,508.5C 51.0542,507.313 47.3875,506.646 43.5,506.5C 43.5,504.167 43.5,501.833 43.5,499.5C 43.5,497.5 43.5,495.5 43.5,493.5C 61.1237,495.378 78.7904,496.211 96.5,496C 99.3333,494.5 101.5,492.333 103,489.5C 103.667,484.833 103.667,480.167 103,475.5C 102.167,473.333 100.667,471.833 98.5,471C 81.2633,468.32 63.93,466.486 46.5,465.5C 46.5,460.833 46.5,456.167 46.5,451.5C 47.5,451.5 48.5,451.5 49.5,451.5 Z"/></g>
<g><path style="opacity:1" fill="#a89f0c" d="M 863.5,445.5 C 865.054,449.567 865.72,453.9 865.5,458.5C 863.946,454.433 863.28,450.1 863.5,445.5 Z"/></g>
<g><path style="opacity:1" fill="#a0980c" d="M 159.5,447.5 C 159.638,452.414 158.972,457.081 157.5,461.5C 157.362,456.586 158.028,451.919 159.5,447.5 Z"/></g>
<g><path style="opacity:1" fill="#a8a8a8" d="M 31.5,444.5 C 31.6382,449.414 30.9715,454.081 29.5,458.5C 29.3618,453.586 30.0285,448.919 31.5,444.5 Z"/></g>
<g><path style="opacity:1" fill="#6d6d6d" d="M 940.5,459.5 C 940.59,462.152 939.924,464.485 938.5,466.5C 938.41,463.848 939.076,461.515 940.5,459.5 Z"/></g>
<g><path style="opacity:1" fill="#525252" d="M 908.5,459.5 C 907.725,464.797 907.392,470.13 907.5,475.5C 906.837,473.527 906.504,471.361 906.5,469C 906.328,465.523 906.994,462.356 908.5,459.5 Z"/></g>
<g><path style="opacity:1" fill="#6e6e6e" d="M 977.5,459.5 C 979.03,462.695 979.696,466.195 979.5,470C 979.497,472.69 979.164,475.19 978.5,477.5C 978.64,471.464 978.307,465.464 977.5,459.5 Z"/></g>
<g><path style="opacity:1" fill="#88810a" d="M 866.5,465.5 C 867.889,470.269 868.556,475.269 868.5,480.5C 867.111,475.731 866.444,470.731 866.5,465.5 Z"/></g>
<g><path style="opacity:1" fill="#828282" d="M 894.5,476.5 C 895.982,487.462 896.648,498.629 896.5,510C 896.5,517.341 896.166,524.508 895.5,531.5C 895.56,513.158 895.226,494.824 894.5,476.5 Z"/></g>
<g><path style="opacity:1" fill="#6e6908" d="M 154.5,488.5 C 154.411,507.177 154.744,525.843 155.5,544.5C 154.055,533.033 153.388,521.367 153.5,509.5C 153.5,502.325 153.834,495.325 154.5,488.5 Z"/></g>
<g><path style="opacity:1" fill="#888888" d="M 43.5,499.5 C 43.5,501.833 43.5,504.167 43.5,506.5C 47.3875,506.646 51.0542,507.313 54.5,508.5C 50.4659,508.495 46.4659,508.162 42.5,507.5C 42.1936,504.615 42.5269,501.948 43.5,499.5 Z"/></g>
<g><path style="opacity:1" fill="#080808" d="M 912.5,508.5 C 934.048,519.441 955.715,530.108 977.5,540.5C 977.833,541.333 978.167,542.167 978.5,543C 977.962,547.399 977.296,551.733 976.5,556C 952.871,563.323 929.205,570.49 905.5,577.5C 905.413,572.463 905.746,567.463 906.5,562.5C 911.984,560.77 917.484,559.104 923,557.5C 924.08,548.153 924.247,538.819 923.5,529.5C 919.379,527.356 915.212,525.356 911,523.5C 910.502,520.518 910.335,517.518 910.5,514.5C 911.167,512.5 911.833,510.5 912.5,508.5 Z"/></g>
<g><path style="opacity:1" fill="#686868" d="M 912.5,508.5 C 911.833,510.5 911.167,512.5 910.5,514.5C 910.192,512.076 910.526,509.743 911.5,507.5C 912.107,507.624 912.44,507.957 912.5,508.5 Z"/></g>
<g><path style="opacity:1" fill="#080808" d="M 97.5,573.5 C 86.3132,574.051 75.3132,575.051 64.5,576.5C 58.819,576.635 53.1523,576.968 47.5,577.5C 47.3314,572.819 46.9981,568.152 46.5,563.5C 65.4726,561.79 84.4726,560.456 103.5,559.5C 103.307,547.47 102.641,535.47 101.5,523.5C 105.5,523.5 109.5,523.5 113.5,523.5C 114.81,539.812 115.81,556.145 116.5,572.5C 110.143,572.476 103.81,572.81 97.5,573.5 Z"/></g>
<g><path style="opacity:1" fill="#fcd118" d="M 381.5,473.5 C 381.5,493.833 381.5,514.167 381.5,534.5C 359.167,534.5 336.833,534.5 314.5,534.5C 314.5,534.167 314.5,533.833 314.5,533.5C 336.5,533.5 358.5,533.5 380.5,533.5C 380.17,513.326 380.503,493.326 381.5,473.5 Z"/></g>
<g><path style="opacity:1" fill="#fccd1a" d="M 707.5,416.5 C 707.5,455.833 707.5,495.167 707.5,534.5C 684.833,534.5 662.167,534.5 639.5,534.5C 639.5,514.833 639.5,495.167 639.5,475.5C 640.497,494.659 640.83,513.993 640.5,533.5C 662.5,533.5 684.5,533.5 706.5,533.5C 706.168,494.33 706.501,455.33 707.5,416.5 Z"/></g>
<g><path style="opacity:1" fill="#fbbc1e" d="M 666.5,487.5 C 668.054,491.567 668.72,495.9 668.5,500.5C 666.946,496.433 666.28,492.1 666.5,487.5 Z"/></g>
<g><path style="opacity:1" fill="#f05330" d="M 636.5,477.5 C 637.499,547.998 637.833,618.665 637.5,689.5C 640.713,689.19 643.713,689.523 646.5,690.5C 643.167,690.5 639.833,690.5 636.5,690.5C 636.5,619.5 636.5,548.5 636.5,477.5 Z"/></g>
<g><path style="opacity:1" fill="#f3f3f3" d="M 936.5,535.5 C 944.631,539.065 952.631,542.899 960.5,547C 952.362,549.951 944.029,552.118 935.5,553.5C 935.502,547.477 935.835,541.477 936.5,535.5 Z"/></g>
<g><path style="opacity:1" fill="#fef112" d="M 723.5,541.5 C 724.498,576.329 724.832,611.329 724.5,646.5C 724.5,673.833 724.5,701.167 724.5,728.5C 720.5,728.5 716.5,728.5 712.5,728.5C 712.5,669.833 712.5,611.167 712.5,552.5C 714.199,552.66 715.866,552.494 717.5,552C 719.728,548.612 721.728,545.112 723.5,541.5 Z"/></g>
<g><path style="opacity:1" fill="#fef012" d="M 298.5,542.5 C 299.901,545.634 301.568,548.634 303.5,551.5C 305.045,552.452 306.712,552.785 308.5,552.5C 308.5,611.167 308.5,669.833 308.5,728.5C 305.167,728.5 301.833,728.5 298.5,728.5C 298.828,716.655 298.495,704.988 297.5,693.5C 297.5,655.833 297.5,618.167 297.5,580.5C 297.171,567.656 297.505,554.989 298.5,542.5 Z"/></g>
<g><path style="opacity:1" fill="#feef12" d="M 314.5,552.5 C 336.833,552.5 359.167,552.5 381.5,552.5C 381.5,556.167 381.5,559.833 381.5,563.5C 359.167,563.5 336.833,563.5 314.5,563.5C 314.5,559.833 314.5,556.167 314.5,552.5 Z"/></g>
<g><path style="opacity:1" fill="#fef012" d="M 640.5,552.5 C 662.833,552.5 685.167,552.5 707.5,552.5C 707.5,556.167 707.5,559.833 707.5,563.5C 685.167,563.5 662.833,563.5 640.5,563.5C 640.5,559.833 640.5,556.167 640.5,552.5 Z"/></g>
<g><path style="opacity:1" fill="#44410c" d="M 867.5,551.5 C 867.556,556.731 866.889,561.731 865.5,566.5C 865.444,561.269 866.111,556.269 867.5,551.5 Z"/></g>
<g><path style="opacity:1" fill="#f58726" d="M 298.5,542.5 C 297.505,554.989 297.171,567.656 297.5,580.5C 296.175,567.661 296.175,554.661 297.5,541.5C 298.107,541.624 298.44,541.957 298.5,542.5 Z"/></g>
<g><path style="opacity:1" fill="#bcbcbc" d="M 97.5,573.5 C 86.7647,575.757 75.7647,576.757 64.5,576.5C 75.3132,575.051 86.3132,574.051 97.5,573.5 Z"/></g>
<g><path style="opacity:1" fill="#f9af1f" d="M 314.5,567.5 C 314.5,573.5 314.5,579.5 314.5,585.5C 336.5,585.5 358.5,585.5 380.5,585.5C 380.5,579.5 380.5,573.5 380.5,567.5C 381.49,573.645 381.823,579.978 381.5,586.5C 358.833,586.5 336.167,586.5 313.5,586.5C 313.177,579.978 313.51,573.645 314.5,567.5 Z"/></g>
<g><path style="opacity:1" fill="#fef112" d="M 314.5,567.5 C 336.5,567.5 358.5,567.5 380.5,567.5C 380.5,573.5 380.5,579.5 380.5,585.5C 358.5,585.5 336.5,585.5 314.5,585.5C 314.5,579.5 314.5,573.5 314.5,567.5 Z"/></g>
<g><path style="opacity:1" fill="#f9b31d" d="M 640.5,567.5 C 640.5,573.5 640.5,579.5 640.5,585.5C 662.5,585.5 684.5,585.5 706.5,585.5C 706.5,579.5 706.5,573.5 706.5,567.5C 707.49,573.645 707.823,579.978 707.5,586.5C 684.833,586.5 662.167,586.5 639.5,586.5C 639.177,579.978 639.51,573.645 640.5,567.5 Z"/></g>
<g><path style="opacity:1" fill="#fef112" d="M 640.5,567.5 C 662.5,567.5 684.5,567.5 706.5,567.5C 706.5,573.5 706.5,579.5 706.5,585.5C 684.5,585.5 662.5,585.5 640.5,585.5C 640.5,579.5 640.5,573.5 640.5,567.5 Z"/></g>
<g><path style="opacity:1" fill="#fff211" d="M 314.5,590.5 C 336.5,590.5 358.5,590.5 380.5,590.5C 380.5,593.833 380.5,597.167 380.5,600.5C 358.5,600.5 336.5,600.5 314.5,600.5C 314.5,597.167 314.5,593.833 314.5,590.5 Z"/></g>
<g><path style="opacity:1" fill="#fff211" d="M 640.5,590.5 C 662.5,590.5 684.5,590.5 706.5,590.5C 706.5,593.833 706.5,597.167 706.5,600.5C 684.5,600.5 662.5,600.5 640.5,600.5C 640.5,597.167 640.5,593.833 640.5,590.5 Z"/></g>
<g><path style="opacity:1" fill="#89820a" d="M 861.5,588.5 C 861.279,591.067 860.612,593.401 859.5,595.5C 859.171,592.772 859.837,590.438 861.5,588.5 Z"/></g>
<g><path style="opacity:1" fill="#f9b91d" d="M 314.5,590.5 C 336.66,589.503 358.994,589.169 381.5,589.5C 381.5,593.5 381.5,597.5 381.5,601.5C 358.994,601.831 336.66,601.497 314.5,600.5C 336.5,600.5 358.5,600.5 380.5,600.5C 380.5,597.167 380.5,593.833 380.5,590.5C 358.5,590.5 336.5,590.5 314.5,590.5 Z"/></g>
<g><path style="opacity:1" fill="#f9b91d" d="M 640.5,590.5 C 662.66,589.503 684.994,589.169 707.5,589.5C 707.5,593.5 707.5,597.5 707.5,601.5C 684.994,601.831 662.66,601.497 640.5,600.5C 662.5,600.5 684.5,600.5 706.5,600.5C 706.5,597.167 706.5,593.833 706.5,590.5C 684.5,590.5 662.5,590.5 640.5,590.5 Z"/></g>
<g><path style="opacity:1" fill="#fff211" d="M 314.5,605.5 C 336.5,605.5 358.5,605.5 380.5,605.5C 380.5,608.833 380.5,612.167 380.5,615.5C 358.5,615.5 336.5,615.5 314.5,615.5C 314.5,612.167 314.5,608.833 314.5,605.5 Z"/></g>
<g><path style="opacity:1" fill="#524d09" d="M 858.5,600.5 C 858.59,603.152 857.924,605.485 856.5,607.5C 856.41,604.848 857.076,602.515 858.5,600.5 Z"/></g>
<g><path style="opacity:1" fill="#4c480d" d="M 855.5,611.5 C 855.323,615.708 853.99,619.374 851.5,622.5C 852.462,618.605 853.796,614.939 855.5,611.5 Z"/></g>
<g><path style="opacity:1" fill="#fabc1c" d="M 314.5,605.5 C 336.66,604.503 358.994,604.169 381.5,604.5C 381.5,608.5 381.5,612.5 381.5,616.5C 358.994,616.831 336.66,616.497 314.5,615.5C 336.5,615.5 358.5,615.5 380.5,615.5C 380.5,612.167 380.5,608.833 380.5,605.5C 358.5,605.5 336.5,605.5 314.5,605.5 Z"/></g>
<g><path style="opacity:1" fill="#fab91d" d="M 639.5,604.5 C 662.167,604.5 684.833,604.5 707.5,604.5C 707.5,608.5 707.5,612.5 707.5,616.5C 684.833,616.5 662.167,616.5 639.5,616.5C 639.5,612.5 639.5,608.5 639.5,604.5 Z"/></g>
<g><path style="opacity:1" fill="#fff211" d="M 640.5,605.5 C 662.5,605.5 684.5,605.5 706.5,605.5C 706.5,608.833 706.5,612.167 706.5,615.5C 684.5,615.5 662.5,615.5 640.5,615.5C 640.5,612.167 640.5,608.833 640.5,605.5 Z"/></g>
<g><path style="opacity:1" fill="#fef012" d="M 380.5,619.5 C 380.5,623.167 380.5,626.833 380.5,630.5C 358.5,630.5 336.5,630.5 314.5,630.5C 314.5,626.833 314.5,623.167 314.5,619.5C 336.5,619.5 358.5,619.5 380.5,619.5 Z"/></g>
<g><path style="opacity:1" fill="#fef012" d="M 706.5,619.5 C 706.5,623.167 706.5,626.833 706.5,630.5C 684.5,630.5 662.5,630.5 640.5,630.5C 640.5,626.833 640.5,623.167 640.5,619.5C 662.5,619.5 684.5,619.5 706.5,619.5 Z"/></g>
<g><path style="opacity:1" fill="#f8a61f" d="M 380.5,619.5 C 381.483,623.298 381.817,627.298 381.5,631.5C 358.994,631.831 336.66,631.497 314.5,630.5C 336.5,630.5 358.5,630.5 380.5,630.5C 380.5,626.833 380.5,623.167 380.5,619.5 Z"/></g>
<g><path style="opacity:1" fill="#f8a51f" d="M 706.5,619.5 C 707.483,623.298 707.817,627.298 707.5,631.5C 684.994,631.831 662.66,631.497 640.5,630.5C 662.5,630.5 684.5,630.5 706.5,630.5C 706.5,626.833 706.5,623.167 706.5,619.5 Z"/></g>
<g><path style="opacity:1" fill="#f9b01e" d="M 725.5,646.5 C 725.167,646.5 724.833,646.5 724.5,646.5C 724.832,611.329 724.498,576.329 723.5,541.5C 723.783,540.711 724.283,540.044 725,539.5C 725.5,575.165 725.667,610.832 725.5,646.5 Z"/></g>
<g><path style="opacity:1" fill="#aca41e" d="M 512.5,634.5 C 502.167,634.5 491.833,634.5 481.5,634.5C 481.5,637.167 481.5,639.833 481.5,642.5C 481.5,642.833 481.5,643.167 481.5,643.5C 480.521,640.375 480.187,637.042 480.5,633.5C 491.346,633.172 502.013,633.506 512.5,634.5 Z"/></g>
<g><path style="opacity:1" fill="#0b0a05" d="M 467.5,633.5 C 467.5,649.5 467.5,665.5 467.5,681.5C 464.5,681.5 461.5,681.5 458.5,681.5C 458.667,670.162 458.5,658.828 458,647.5C 457.283,648.044 456.783,648.711 456.5,649.5C 453.281,651.027 450.115,652.693 447,654.5C 445.156,648.122 447.323,643.955 453.5,642C 456.206,639.629 458.539,636.963 460.5,634C 462.81,633.503 465.143,633.337 467.5,633.5 Z"/></g>
<g><path style="opacity:1" fill="#958c24" d="M 467.5,633.5 C 468.496,649.658 468.83,665.991 468.5,682.5C 464.958,682.813 461.625,682.479 458.5,681.5C 461.5,681.5 464.5,681.5 467.5,681.5C 467.5,665.5 467.5,649.5 467.5,633.5 Z"/></g>
<g><path style="opacity:1" fill="#0f0e07" d="M 527.5,633.5 C 539.195,632.03 546.361,637.03 549,648.5C 549.667,654.5 549.667,660.5 549,666.5C 545.379,680.392 536.879,684.892 523.5,680C 520.397,677.194 518.73,673.694 518.5,669.5C 521.572,669.183 524.572,669.516 527.5,670.5C 532.146,676.008 535.979,675.342 539,668.5C 539.667,666.5 539.667,664.5 539,662.5C 528.997,667.941 521.997,665.275 518,654.5C 515.894,644.943 519.061,637.943 527.5,633.5 Z"/></g>
<g><path style="opacity:1" fill="#0c0b05" d="M 569.5,671.5 C 568.957,671.56 568.624,671.893 568.5,672.5C 574.128,673.495 579.794,673.829 585.5,673.5C 585.5,676.167 585.5,678.833 585.5,681.5C 575.167,681.5 564.833,681.5 554.5,681.5C 554.5,680.167 554.5,678.833 554.5,677.5C 555.217,675.047 556.384,672.713 558,670.5C 564.74,664.43 570.74,657.763 576,650.5C 577.301,643.563 574.468,640.73 567.5,642C 565.081,643.509 564.081,645.675 564.5,648.5C 562.5,648.5 560.5,648.5 558.5,648.5C 557.737,647.732 556.737,647.232 555.5,647C 556.406,645.301 556.739,643.467 556.5,641.5C 561.086,633.916 567.753,631.416 576.5,634C 585.221,638.125 588.054,644.959 585,654.5C 579.996,660.336 574.829,666.003 569.5,671.5 Z"/></g>
<g><path style="opacity:1" fill="#fff211" d="M 314.5,635.5 C 336.5,635.5 358.5,635.5 380.5,635.5C 380.5,637.833 380.5,640.167 380.5,642.5C 358.5,642.5 336.5,642.5 314.5,642.5C 314.5,640.167 314.5,637.833 314.5,635.5 Z"/></g>
<g><path style="opacity:1" fill="#0d0c05" d="M 512.5,634.5 C 512.663,636.857 512.497,639.19 512,641.5C 502.225,652.983 497.058,666.317 496.5,681.5C 493.5,681.5 490.5,681.5 487.5,681.5C 487.701,673.888 489.201,666.554 492,659.5C 494.106,654.27 496.939,649.603 500.5,645.5C 501.404,644.791 501.737,643.791 501.5,642.5C 494.833,642.5 488.167,642.5 481.5,642.5C 481.5,639.833 481.5,637.167 481.5,634.5C 491.833,634.5 502.167,634.5 512.5,634.5 Z"/></g>
<g><path style="opacity:1" fill="#fcda16" d="M 314.5,635.5 C 336.66,634.503 358.994,634.169 381.5,634.5C 381.5,637.5 381.5,640.5 381.5,643.5C 358.994,643.831 336.66,643.497 314.5,642.5C 336.5,642.5 358.5,642.5 380.5,642.5C 380.5,640.167 380.5,637.833 380.5,635.5C 358.5,635.5 336.5,635.5 314.5,635.5 Z"/></g>
<g><path style="opacity:1" fill="#4e4a26" d="M 481.5,643.5 C 481.5,643.167 481.5,642.833 481.5,642.5C 488.167,642.5 494.833,642.5 501.5,642.5C 501.737,643.791 501.404,644.791 500.5,645.5C 494.588,643.544 488.255,642.877 481.5,643.5 Z"/></g>
<g><path style="opacity:1" fill="#fcd817" d="M 639.5,634.5 C 662.167,634.5 684.833,634.5 707.5,634.5C 707.5,637.5 707.5,640.5 707.5,643.5C 684.833,643.5 662.167,643.5 639.5,643.5C 639.5,640.5 639.5,637.5 639.5,634.5 Z"/></g>
<g><path style="opacity:1" fill="#fff211" d="M 640.5,635.5 C 662.5,635.5 684.5,635.5 706.5,635.5C 706.5,637.833 706.5,640.167 706.5,642.5C 684.5,642.5 662.5,642.5 640.5,642.5C 640.5,640.167 640.5,637.833 640.5,635.5 Z"/></g>
<g><path style="opacity:1" fill="#eee316" d="M 537.5,644.5 C 537.5,648.167 537.5,651.833 537.5,655.5C 533.762,659.669 530.262,659.335 527,654.5C 525.807,649.848 526.64,645.681 529.5,642C 530.5,641.833 531.5,641.667 532.5,641.5C 534.693,641.771 536.359,642.771 537.5,644.5 Z"/></g>
<g><path style="opacity:1" fill="#544f1c" d="M 556.5,641.5 C 556.739,643.467 556.406,645.301 555.5,647C 556.737,647.232 557.737,647.732 558.5,648.5C 557.167,648.5 555.833,648.5 554.5,648.5C 554.41,645.848 555.076,643.515 556.5,641.5 Z"/></g>
<g><path style="opacity:1" fill="#f8a520" d="M 314.5,647.5 C 336.66,646.503 358.994,646.169 381.5,646.5C 381.817,650.702 381.483,654.702 380.5,658.5C 380.5,654.833 380.5,651.167 380.5,647.5C 358.5,647.5 336.5,647.5 314.5,647.5 Z"/></g>
<g><path style="opacity:1" fill="#f79d22" d="M 706.5,658.5 C 706.5,654.833 706.5,651.167 706.5,647.5C 684.5,647.5 662.5,647.5 640.5,647.5C 640.5,651.167 640.5,654.833 640.5,658.5C 639.517,654.702 639.183,650.702 639.5,646.5C 662.167,646.5 684.833,646.5 707.5,646.5C 707.817,650.702 707.483,654.702 706.5,658.5 Z"/></g>
<g><path style="opacity:1" fill="#fef012" d="M 314.5,647.5 C 336.5,647.5 358.5,647.5 380.5,647.5C 380.5,651.167 380.5,654.833 380.5,658.5C 358.5,658.5 336.5,658.5 314.5,658.5C 314.5,654.833 314.5,651.167 314.5,647.5 Z"/></g>
<g><path style="opacity:1" fill="#fef012" d="M 706.5,658.5 C 684.5,658.5 662.5,658.5 640.5,658.5C 640.5,654.833 640.5,651.167 640.5,647.5C 662.5,647.5 684.5,647.5 706.5,647.5C 706.5,651.167 706.5,654.833 706.5,658.5 Z"/></g>
<g><path style="opacity:1" fill="#c6bb19" d="M 458.5,681.5 C 457.833,670.833 457.167,660.167 456.5,649.5C 456.783,648.711 457.283,648.044 458,647.5C 458.5,658.828 458.667,670.162 458.5,681.5 Z"/></g>
<g><path style="opacity:1" fill="#bab01b" d="M 537.5,644.5 C 540.065,648.199 540.065,651.865 537.5,655.5C 537.5,651.833 537.5,648.167 537.5,644.5 Z"/></g>
<g><path style="opacity:1" fill="#fff211" d="M 314.5,662.5 C 336.5,662.5 358.5,662.5 380.5,662.5C 380.5,665.5 380.5,668.5 380.5,671.5C 358.5,671.5 336.5,671.5 314.5,671.5C 314.5,668.5 314.5,665.5 314.5,662.5 Z"/></g>
<g><path style="opacity:1" fill="#f9af1e" d="M 314.5,662.5 C 336.66,661.503 358.994,661.169 381.5,661.5C 381.5,665.167 381.5,668.833 381.5,672.5C 358.994,672.831 336.66,672.497 314.5,671.5C 336.5,671.5 358.5,671.5 380.5,671.5C 380.5,668.5 380.5,665.5 380.5,662.5C 358.5,662.5 336.5,662.5 314.5,662.5 Z"/></g>
<g><path style="opacity:1" fill="#f8ad1f" d="M 639.5,661.5 C 662.167,661.5 684.833,661.5 707.5,661.5C 707.5,665.167 707.5,668.833 707.5,672.5C 684.833,672.5 662.167,672.5 639.5,672.5C 639.5,668.833 639.5,665.167 639.5,661.5 Z"/></g>
<g><path style="opacity:1" fill="#fff211" d="M 640.5,662.5 C 662.5,662.5 684.5,662.5 706.5,662.5C 706.5,665.5 706.5,668.5 706.5,671.5C 684.5,671.5 662.5,671.5 640.5,671.5C 640.5,668.5 640.5,665.5 640.5,662.5 Z"/></g>
<g><path style="opacity:1" fill="#756f1e" d="M 569.5,671.5 C 574.975,672.489 580.642,672.822 586.5,672.5C 586.5,675.5 586.5,678.5 586.5,681.5C 586.167,681.5 585.833,681.5 585.5,681.5C 585.5,678.833 585.5,676.167 585.5,673.5C 579.794,673.829 574.128,673.495 568.5,672.5C 568.624,671.893 568.957,671.56 569.5,671.5 Z"/></g>
<g><path style="opacity:1" fill="#fef211" d="M 314.5,676.5 C 336.5,676.5 358.5,676.5 380.5,676.5C 380.5,679.833 380.5,683.167 380.5,686.5C 358.5,686.5 336.5,686.5 314.5,686.5C 314.5,683.167 314.5,679.833 314.5,676.5 Z"/></g>
<g><path style="opacity:1" fill="#fff211" d="M 640.5,676.5 C 662.5,676.5 684.5,676.5 706.5,676.5C 706.5,679.833 706.5,683.167 706.5,686.5C 684.5,686.5 662.5,686.5 640.5,686.5C 640.5,683.167 640.5,679.833 640.5,676.5 Z"/></g>
<g><path style="opacity:1" fill="#b9af1a" d="M 554.5,677.5 C 554.5,678.833 554.5,680.167 554.5,681.5C 564.833,681.5 575.167,681.5 585.5,681.5C 585.833,681.5 586.167,681.5 586.5,681.5C 575.679,682.495 564.679,682.828 553.5,682.5C 553.216,680.585 553.549,678.919 554.5,677.5 Z"/></g>
<g><path style="opacity:1" fill="#fab81c" d="M 314.5,676.5 C 336.66,675.503 358.994,675.169 381.5,675.5C 381.5,679.5 381.5,683.5 381.5,687.5C 358.994,687.831 336.66,687.497 314.5,686.5C 336.5,686.5 358.5,686.5 380.5,686.5C 380.5,683.167 380.5,679.833 380.5,676.5C 358.5,676.5 336.5,676.5 314.5,676.5 Z"/></g>
<g><path style="opacity:1" fill="#fab61d" d="M 640.5,676.5 C 662.66,675.503 684.994,675.169 707.5,675.5C 707.5,679.5 707.5,683.5 707.5,687.5C 684.994,687.831 662.66,687.497 640.5,686.5C 662.5,686.5 684.5,686.5 706.5,686.5C 706.5,683.167 706.5,679.833 706.5,676.5C 684.5,676.5 662.5,676.5 640.5,676.5 Z"/></g>
<g><path style="opacity:1" fill="#feee12" d="M 368.5,729.5 C 365.833,729.5 363.167,729.5 360.5,729.5C 360.5,721.167 360.5,712.833 360.5,704.5C 357.5,704.5 354.5,704.5 351.5,704.5C 351.5,700.167 351.5,695.833 351.5,691.5C 357.167,691.5 362.833,691.5 368.5,691.5C 368.5,704.167 368.5,716.833 368.5,729.5 Z"/></g>
<g><path style="opacity:1" fill="#fbc919" d="M 368.5,729.5 C 368.5,716.833 368.5,704.167 368.5,691.5C 362.833,691.5 357.167,691.5 351.5,691.5C 351.5,695.833 351.5,700.167 351.5,704.5C 350.514,700.03 350.181,695.363 350.5,690.5C 356.833,690.5 363.167,690.5 369.5,690.5C 369.829,703.677 369.495,716.677 368.5,729.5 Z"/></g>
<g><path style="opacity:1" fill="#feef12" d="M 670.5,690.5 C 670.5,695.167 670.5,699.833 670.5,704.5C 667.167,704.5 663.833,704.5 660.5,704.5C 660.5,712.833 660.5,721.167 660.5,729.5C 657.5,729.5 654.5,729.5 651.5,729.5C 651.5,716.5 651.5,703.5 651.5,690.5C 657.833,690.5 664.167,690.5 670.5,690.5 Z"/></g>
<g><path style="opacity:1" fill="#feed13" d="M 689.5,690.5 C 695.167,690.5 700.833,690.5 706.5,690.5C 706.5,703.5 706.5,716.5 706.5,729.5C 703.5,729.5 700.5,729.5 697.5,729.5C 697.5,721.5 697.5,713.5 697.5,705.5C 695.052,704.527 692.385,704.194 689.5,704.5C 689.5,699.833 689.5,695.167 689.5,690.5 Z"/></g>
<g><path style="opacity:1" fill="#fbc41b" d="M 308.5,552.5 C 309.499,611.331 309.832,670.331 309.5,729.5C 305.5,729.5 301.5,729.5 297.5,729.5C 297.5,717.5 297.5,705.5 297.5,693.5C 298.495,704.988 298.828,716.655 298.5,728.5C 301.833,728.5 305.167,728.5 308.5,728.5C 308.5,669.833 308.5,611.167 308.5,552.5 Z"/></g>
<g><path style="opacity:1" fill="#080808" d="M 120.5,699.5 C 121.239,699.369 121.906,699.536 122.5,700C 128.369,706.867 134.536,713.367 141,719.5C 149.021,715.404 157.188,711.737 165.5,708.5C 161.97,716.708 157.97,724.708 153.5,732.5C 158.72,740.062 164.72,747.062 171.5,753.5C 170.5,753.833 169.5,754.167 168.5,754.5C 160.578,752.414 152.578,750.747 144.5,749.5C 143.833,749.833 143.167,750.167 142.5,750.5C 138.911,758.689 134.577,766.355 129.5,773.5C 127.9,764.233 126.9,754.899 126.5,745.5C 117.586,743.601 108.586,742.101 99.5,741C 99.0426,740.586 98.7093,740.086 98.5,739.5C 106.59,735.372 114.756,731.372 123,727.5C 123.156,718.094 122.322,708.761 120.5,699.5 Z"/></g>
<g><path style="opacity:1" fill="#060606" d="M 901.5,706.5 C 900.028,710.919 899.362,715.586 899.5,720.5C 898.283,724.034 898.283,727.534 899.5,731C 907.961,734.065 915.961,737.899 923.5,742.5C 914.25,744.684 904.917,746.35 895.5,747.5C 895.156,756.898 894.156,766.231 892.5,775.5C 887.47,767.95 882.804,760.117 878.5,752C 869.992,753.1 861.492,754.6 853,756.5C 852.167,756.167 851.333,755.833 850.5,755.5C 856.833,748.833 863.167,742.167 869.5,735.5C 864.833,727.5 860.167,719.5 855.5,711.5C 864.208,714.316 872.875,717.982 881.5,722.5C 887.6,715.311 893.933,708.311 900.5,701.5C 901.452,703.045 901.785,704.712 901.5,706.5 Z"/></g>
<g><path style="opacity:1" fill="#fdda16" d="M 332.5,704.5 C 332.167,704.5 331.833,704.5 331.5,704.5C 331.5,700.167 331.5,695.833 331.5,691.5C 326.167,691.5 320.833,691.5 315.5,691.5C 315.5,703.833 315.5,716.167 315.5,728.5C 317.833,728.5 320.167,728.5 322.5,728.5C 322.174,720.316 322.508,712.316 323.5,704.5C 323.5,712.833 323.5,721.167 323.5,729.5C 320.5,729.5 317.5,729.5 314.5,729.5C 314.5,716.5 314.5,703.5 314.5,690.5C 320.5,690.5 326.5,690.5 332.5,690.5C 332.5,695.167 332.5,699.833 332.5,704.5 Z"/></g>
<g><path style="opacity:1" fill="#fff211" d="M 331.5,704.5 C 328.833,704.5 326.167,704.5 323.5,704.5C 322.508,712.316 322.174,720.316 322.5,728.5C 320.167,728.5 317.833,728.5 315.5,728.5C 315.5,716.167 315.5,703.833 315.5,691.5C 320.833,691.5 326.167,691.5 331.5,691.5C 331.5,695.833 331.5,700.167 331.5,704.5 Z"/></g>
<g><path style="opacity:1" fill="#f1622d" d="M 323.5,704.5 C 326.167,704.5 328.833,704.5 331.5,704.5C 331.833,704.5 332.167,704.5 332.5,704.5C 330.052,705.473 327.385,705.806 324.5,705.5C 324.826,713.684 324.492,721.684 323.5,729.5C 323.5,721.167 323.5,712.833 323.5,704.5 Z"/></g>
<g><path style="opacity:1" fill="#f1622e" d="M 670.5,690.5 C 671.486,694.97 671.819,699.637 671.5,704.5C 677.167,704.5 682.833,704.5 688.5,704.5C 688.181,699.637 688.514,694.97 689.5,690.5C 689.5,695.167 689.5,699.833 689.5,704.5C 692.385,704.194 695.052,704.527 697.5,705.5C 685.5,705.5 673.5,705.5 661.5,705.5C 661.826,713.684 661.492,721.684 660.5,729.5C 660.5,721.167 660.5,712.833 660.5,704.5C 663.833,704.5 667.167,704.5 670.5,704.5C 670.5,699.833 670.5,695.167 670.5,690.5 Z"/></g>
<g><path style="opacity:1" fill="#fcd617" d="M 724.5,646.5 C 724.833,646.5 725.167,646.5 725.5,646.5C 725.5,674.167 725.5,701.833 725.5,729.5C 720.968,729.818 716.634,729.485 712.5,728.5C 716.5,728.5 720.5,728.5 724.5,728.5C 724.5,701.167 724.5,673.833 724.5,646.5 Z"/></g>
<g><path style="opacity:1" fill="#a3a3a3" d="M 901.5,706.5 C 901.638,711.414 900.972,716.081 899.5,720.5C 899.362,715.586 900.028,710.919 901.5,706.5 Z"/></g>
<g><path style="opacity:1" fill="#fff112" d="M 383.5,733.5 C 383.5,743.5 383.5,753.5 383.5,763.5C 358.833,763.5 334.167,763.5 309.5,763.5C 309.5,753.5 309.5,743.5 309.5,733.5C 334.167,733.5 358.833,733.5 383.5,733.5 Z"/></g>
<g><path style="opacity:1" fill="#fff211" d="M 712.5,733.5 C 712.5,743.5 712.5,753.5 712.5,763.5C 687.833,763.5 663.167,763.5 638.5,763.5C 638.5,753.5 638.5,743.5 638.5,733.5C 663.167,733.5 687.833,733.5 712.5,733.5 Z"/></g>
<g><path style="opacity:1" fill="#0b0a04" d="M 458.5,804.5 C 458.5,808.167 458.5,811.833 458.5,815.5C 444.323,815.829 430.323,815.496 416.5,814.5C 417.255,809.4 419.088,804.734 422,800.5C 428.64,793.86 435.306,787.194 442,780.5C 445.581,776.091 446.915,771.091 446,765.5C 442.319,762.64 438.152,761.807 433.5,763C 431.081,764.509 430.081,766.675 430.5,769.5C 428.954,770.636 427.121,771.302 425,771.5C 422.472,771.275 419.972,770.942 417.5,770.5C 417.5,769.5 417.5,768.5 417.5,767.5C 418.832,759.343 423.499,754.177 431.5,752C 444.191,748.881 453.358,753.047 459,764.5C 459.791,768.926 459.457,773.259 458,777.5C 455.916,781.336 453.583,785.003 451,788.5C 445.351,792.982 440.184,797.982 435.5,803.5C 443.138,804.497 450.804,804.831 458.5,804.5 Z"/></g>
<g><path style="opacity:1" fill="#0b0a05" d="M 467.5,794.5 C 467.335,786.138 467.668,777.805 468.5,769.5C 473.923,750.954 484.923,746.621 501.5,756.5C 503.58,758.993 505.414,761.659 507,764.5C 510.719,779.043 510.053,793.376 505,807.5C 498.752,816.589 490.252,819.422 479.5,816C 475.612,813.778 472.779,810.612 471,806.5C 469.808,802.377 468.641,798.377 467.5,794.5 Z"/></g>
<g><path style="opacity:1" fill="#0c0a04" d="M 556.5,765.5 C 556.41,768.152 557.076,770.485 558.5,772.5C 558.666,781.506 558.5,790.506 558,799.5C 554.485,813.502 545.652,819.335 531.5,817C 524.744,813.911 520.577,808.745 519,801.5C 517.469,791.552 517.135,781.552 518,771.5C 520.384,756.105 529.217,749.605 544.5,752C 550.473,754.803 554.473,759.303 556.5,765.5 Z"/></g>
<g><path style="opacity:1" fill="#060503" d="M 592.5,752.5 C 595.833,752.5 599.167,752.5 602.5,752.5C 602.171,766.01 602.504,779.344 603.5,792.5C 606.167,792.5 608.833,792.5 611.5,792.5C 611.5,796.167 611.5,799.833 611.5,803.5C 608.833,803.5 606.167,803.5 603.5,803.5C 603.5,807.5 603.5,811.5 603.5,815.5C 599.5,815.5 595.5,815.5 591.5,815.5C 591.5,811.167 591.5,806.833 591.5,802.5C 582.833,802.5 574.167,802.5 565.5,802.5C 565.5,799.167 565.5,795.833 565.5,792.5C 574.008,778.813 583.008,765.48 592.5,752.5 Z"/></g>
<g><path style="opacity:1" fill="#343122" d="M 592.5,752.5 C 595.962,751.518 599.629,751.185 603.5,751.5C 603.5,765.167 603.5,778.833 603.5,792.5C 602.504,779.344 602.171,766.01 602.5,752.5C 599.167,752.5 595.833,752.5 592.5,752.5 Z"/></g>
<g><path style="opacity:1" fill="#f5e914" d="M 485.5,761.5 C 490.474,761.299 493.64,763.632 495,768.5C 495.667,778.5 495.667,788.5 495,798.5C 493.704,806.148 489.704,808.148 483,804.5C 480.083,791.916 479.75,779.249 482,766.5C 482.997,764.677 484.164,763.01 485.5,761.5 Z"/></g>
<g><path style="opacity:1" fill="#faed13" d="M 531.5,798.5 C 531.263,787.802 531.596,777.135 532.5,766.5C 532.511,764.983 533.177,763.816 534.5,763C 541.012,761.17 544.512,763.67 545,770.5C 545.667,779.5 545.667,788.5 545,797.5C 544.433,804.24 540.933,807.073 534.5,806C 532.798,803.765 531.798,801.265 531.5,798.5 Z"/></g>
<g><path style="opacity:1" fill="#fbc21b" d="M 383.5,733.5 C 358.833,733.5 334.167,733.5 309.5,733.5C 309.5,743.5 309.5,753.5 309.5,763.5C 334.167,763.5 358.833,763.5 383.5,763.5C 358.672,764.498 333.672,764.831 308.5,764.5C 308.5,753.833 308.5,743.167 308.5,732.5C 333.672,732.169 358.672,732.502 383.5,733.5 Z"/></g>
<g><path style="opacity:1" fill="#fbc11b" d="M 712.5,733.5 C 687.833,733.5 663.167,733.5 638.5,733.5C 638.5,743.5 638.5,753.5 638.5,763.5C 663.167,763.5 687.833,763.5 712.5,763.5C 687.672,764.498 662.672,764.831 637.5,764.5C 637.5,753.833 637.5,743.167 637.5,732.5C 662.672,732.169 687.672,732.502 712.5,733.5 Z"/></g>
<g><path style="opacity:1" fill="#f2632d" d="M 294.5,716.5 C 295.497,733.325 295.83,750.325 295.5,767.5C 330.167,767.5 364.833,767.5 399.5,767.5C 364.671,768.498 329.671,768.832 294.5,768.5C 294.5,751.167 294.5,733.833 294.5,716.5 Z"/></g>
<g><path style="opacity:1" fill="#c1b71b" d="M 417.5,767.5 C 417.5,768.5 417.5,769.5 417.5,770.5C 419.972,770.942 422.472,771.275 425,771.5C 427.121,771.302 428.954,770.636 430.5,769.5C 430.5,770.5 430.5,771.5 430.5,772.5C 425.786,772.647 421.119,772.314 416.5,771.5C 416.232,769.901 416.566,768.568 417.5,767.5 Z"/></g>
<g><path style="opacity:1" fill="#6d671e" d="M 556.5,765.5 C 557.924,767.515 558.59,769.848 558.5,772.5C 557.076,770.485 556.41,768.152 556.5,765.5 Z"/></g>
<g><path style="opacity:1" fill="#746e26" d="M 589.5,773.5 C 589.56,772.957 589.893,772.624 590.5,772.5C 591.818,779.322 591.818,785.989 590.5,792.5C 590.823,785.978 590.49,779.645 589.5,773.5 Z"/></g>
<g><path style="opacity:1" fill="#eee315" d="M 589.5,773.5 C 590.49,779.645 590.823,785.978 590.5,792.5C 586.116,792.826 581.783,792.492 577.5,791.5C 581.167,785.187 585.167,779.187 589.5,773.5 Z"/></g>
<g><path style="opacity:1" fill="#bbb21b" d="M 468.5,769.5 C 467.668,777.805 467.335,786.138 467.5,794.5C 466.835,791.183 466.501,787.683 466.5,784C 466.293,778.898 466.96,774.065 468.5,769.5 Z"/></g>
<g><path style="opacity:1" fill="#b1a81d" d="M 532.5,766.5 C 531.596,777.135 531.263,787.802 531.5,798.5C 530.342,789.009 530.175,779.342 531,769.5C 531.232,768.263 531.732,767.263 532.5,766.5 Z"/></g>
<g><path style="opacity:1" fill="#464121" d="M 565.5,792.5 C 565.5,795.833 565.5,799.167 565.5,802.5C 574.167,802.5 582.833,802.5 591.5,802.5C 591.5,806.833 591.5,811.167 591.5,815.5C 595.5,815.5 599.5,815.5 603.5,815.5C 599.366,816.485 595.032,816.818 590.5,816.5C 590.5,812.167 590.5,807.833 590.5,803.5C 581.833,803.5 573.167,803.5 564.5,803.5C 564.185,799.629 564.518,795.962 565.5,792.5 Z"/></g>
<g><path style="opacity:1" fill="#56511d" d="M 458.5,804.5 C 459.483,808.298 459.817,812.298 459.5,816.5C 444.818,816.833 430.152,816.499 415.5,815.5C 415.624,814.893 415.957,814.56 416.5,814.5C 430.323,815.496 444.323,815.829 458.5,815.5C 458.5,811.833 458.5,808.167 458.5,804.5 Z"/></g>
<g><path style="opacity:1" fill="#090909" d="M 288.5,847.5 C 292.801,849.317 296.801,851.65 300.5,854.5C 291.247,870.004 282.247,885.67 273.5,901.5C 282.379,907.528 291.546,913.195 301,918.5C 300.626,921.275 299.626,923.942 298,926.5C 297.275,927.059 296.442,927.392 295.5,927.5C 283.063,920.906 270.729,914.072 258.5,907C 257.426,906.261 256.759,905.261 256.5,904C 267.045,885.074 277.712,866.241 288.5,847.5 Z"/></g>
<g><path style="opacity:1" fill="#9a930b" d="M 414.5,855.5 C 417.152,855.41 419.485,856.076 421.5,857.5C 418.848,857.59 416.515,856.924 414.5,855.5 Z"/></g>
<g><path style="opacity:1" fill="#070707" d="M 706.5,860.5 C 707.552,860.351 708.552,860.517 709.5,861C 728.016,875.426 746.349,890.093 764.5,905C 760.623,907.438 756.623,909.605 752.5,911.5C 748.153,909.647 744.486,906.814 741.5,903C 738.581,902.448 735.914,903.115 733.5,905C 728.332,908.419 722.998,911.585 717.5,914.5C 717.167,915.5 716.833,916.5 716.5,917.5C 718.153,922.053 718.653,926.72 718,931.5C 714.464,934.184 710.631,936.184 706.5,937.5C 703.276,915.156 699.943,892.823 696.5,870.5C 696.667,869.167 696.833,867.833 697,866.5C 700.485,864.85 703.651,862.85 706.5,860.5 Z"/></g>
<g><path style="opacity:1" fill="#948c0b" d="M 448.5,863.5 C 454.503,863.333 460.17,864.333 465.5,866.5C 459.626,865.951 453.959,864.951 448.5,863.5 Z"/></g>
<g><path style="opacity:1" fill="#5f5a0a" d="M 574.5,863.5 C 569.394,865.044 564.061,866.044 558.5,866.5C 563.506,864.441 568.84,863.441 574.5,863.5 Z"/></g>
<g><path style="opacity:1" fill="#645f07" d="M 541.5,867.5 C 531.544,869.005 521.377,869.672 511,869.5C 503.992,869.5 497.158,869.166 490.5,868.5C 507.513,868.65 524.513,868.316 541.5,867.5 Z"/></g>
<g><path style="opacity:1" fill="#efefef" d="M 710.5,878.5 C 717.17,883.18 723.503,888.346 729.5,894C 724.5,897.167 719.5,900.333 714.5,903.5C 712.39,895.283 711.056,886.95 710.5,878.5 Z"/></g>
<g><path style="opacity:1" fill="#060606" d="M 366.5,886.5 C 370.888,887.964 375.221,889.63 379.5,891.5C 380.666,915.493 380.833,939.493 380,963.5C 375.98,961.742 371.814,960.409 367.5,959.5C 367.5,953.5 367.5,947.5 367.5,941.5C 359.202,938.938 351.035,935.938 343,932.5C 339.045,936.455 335.045,940.455 331,944.5C 326.72,943.047 322.554,941.213 318.5,939C 334.706,921.63 350.706,904.13 366.5,886.5 Z"/></g>
<g><path style="opacity:1" fill="#080808" d="M 648.5,888.5 C 650.792,888.244 652.959,888.577 655,889.5C 660.772,910.53 666.605,931.53 672.5,952.5C 667.892,953.923 663.225,954.756 658.5,955C 646.033,944.202 633.867,933.035 622,921.5C 625.348,935.214 629.181,948.881 633.5,962.5C 629.485,964.837 625.151,966.171 620.5,966.5C 614.982,944.758 609.315,923.091 603.5,901.5C 607.762,900.242 612.096,899.742 616.5,900C 628.967,910.798 641.133,921.965 653,933.5C 653.201,930.485 652.868,927.485 652,924.5C 648.526,913.246 645.359,901.913 642.5,890.5C 644.898,890.741 646.898,890.074 648.5,888.5 Z"/></g>
<g><path style="opacity:1" fill="#f0f0f0" d="M 366.5,905.5 C 367.833,913.5 367.833,921.5 366.5,929.5C 360.956,927.82 355.623,925.653 350.5,923C 355.699,916.971 361.033,911.138 366.5,905.5 Z"/></g>
<g><path style="opacity:1" fill="#090909" d="M 464.5,941.5 C 469.269,942.889 474.269,943.556 479.5,943.5C 481.256,944.552 481.923,946.219 481.5,948.5C 480.111,953.269 479.444,958.269 479.5,963.5C 479.221,966.118 478.554,968.618 477.5,971C 462.038,979.493 446.705,979.493 431.5,971C 421.277,960.965 417.443,948.799 420,934.5C 425.376,914.133 438.542,905.3 459.5,908C 467.986,909.492 474.82,913.658 480,920.5C 481.904,923.923 482.737,927.59 482.5,931.5C 478.116,931.826 473.783,931.492 469.5,930.5C 467.632,925.132 463.965,921.632 458.5,920C 446.285,917.225 438.118,921.725 434,933.5C 433.333,939.833 433.333,946.167 434,952.5C 438.484,963.66 446.651,967.826 458.5,965C 460.955,963.688 463.455,962.522 466,961.5C 466.497,958.854 466.664,956.187 466.5,953.5C 461.853,952.704 457.186,952.037 452.5,951.5C 452.5,947.833 452.5,944.167 452.5,940.5C 456.5,940.833 460.5,941.167 464.5,941.5 Z"/></g>
<g><path style="opacity:1" fill="#080808" d="M 556.5,909.5 C 559.167,909.5 561.833,909.5 564.5,909.5C 565.279,924.178 566.279,938.844 567.5,953.5C 568.694,964.136 564.694,971.969 555.5,977C 545.096,981.437 534.762,981.437 524.5,977C 520.509,974.011 517.676,970.178 516,965.5C 513.695,948.232 512.195,930.899 511.5,913.5C 515.833,913.5 520.167,913.5 524.5,913.5C 525.449,929.55 526.949,945.55 529,961.5C 532.655,968.07 538.155,970.237 545.5,968C 548.562,966.939 551.062,965.106 553,962.5C 553.548,945.136 553.048,927.803 551.5,910.5C 553.415,910.784 555.081,910.451 556.5,909.5 Z"/></g>
<g><path style="opacity:1" fill="#494949" d="M 366.5,905.5 C 366.56,904.957 366.893,904.624 367.5,904.5C 368.833,913.167 368.833,921.833 367.5,930.5C 366.893,930.376 366.56,930.043 366.5,929.5C 367.833,921.5 367.833,913.5 366.5,905.5 Z"/></g>
<g><path style="opacity:1" fill="#8d8d8d" d="M 464.5,941.5 C 469.731,941.444 474.731,942.111 479.5,943.5C 474.269,943.556 469.269,942.889 464.5,941.5 Z"/></g>
<g><path style="opacity:1" fill="#939393" d="M 481.5,948.5 C 481.556,953.731 480.889,958.731 479.5,963.5C 479.444,958.269 480.111,953.269 481.5,948.5 Z"/></g>
<g><path style="opacity:1" fill="#a8a8a8" d="M 425.5,988.5 C 431.194,988.24 436.527,989.24 441.5,991.5C 435.939,991.044 430.606,990.044 425.5,988.5 Z"/></g>
<g><path style="opacity:1" fill="#a5a5a5" d="M 445.5,991.5 C 450.414,991.362 455.081,992.028 459.5,993.5C 454.586,993.638 449.919,992.972 445.5,991.5 Z"/></g>
</svg>
